<?xml version="1.0" encoding="utf-8"?>
<!-- Generator: Adobe Illustrator 13.0.0, SVG Export Plug-In . SVG Version: 6.00 Build 14948)  -->
<!DOCTYPE svg PUBLIC "-//W3C//DTD SVG 1.0//EN" "http://www.w3.org/TR/2001/REC-SVG-20010904/DTD/svg10.dtd">
<svg version="1.0" xmlns="http://www.w3.org/2000/svg" xmlns:xlink="http://www.w3.org/1999/xlink" x="0px" y="0px"
	 width="127.229px" height="115.445px" viewBox="0 0 127.229 115.445" enable-background="new 0 0 127.229 115.445"
	 xml:space="preserve">
<g id="Calque_1">
	<path fill="#D9DADC" stroke="#808284" stroke-width="5" d="M121.979,97.048c0,7.294-5.914,13.21-13.207,13.21H64.115H12.959
		c-7.294,0-13.209-5.916-13.209-13.21V13.021c0-7.296,5.915-13.209,13.209-13.209h95.812c7.293,0,13.207,5.913,13.207,13.209
		L121.979,97.048L121.979,97.048z"/>
	<path fill="#FFFFFF" stroke="#808284" stroke-width="5" d="M121.979,97.048c0,7.294-5.914,13.21-13.207,13.21H58.115L57.864-0.188
		h50.907c7.293,0,13.207,5.913,13.207,13.209L121.979,97.048L121.979,97.048z"/>
	<g>
		<path d="M40.327,79.529v3.457c-3.281,0.82-6.192,1.23-8.73,1.23c-7.598,0-13.677-2.446-18.237-7.339
			c-4.561-4.893-6.841-11.421-6.841-19.585c0-8.164,2.441-14.995,7.324-20.493c4.882-5.498,10.947-8.247,18.193-8.247
			c6.27,0,11.357,2.222,15.264,6.665c3.906,4.443,5.859,10.239,5.859,17.388c0,5.645-0.928,10.039-2.783,13.184
			c-1.856,3.145-4.453,4.717-7.793,4.717c-3.301,0-5.684-1.982-7.148-5.947c-3.028,3.965-6.104,5.947-9.229,5.947
			c-2.48,0-4.453-1.025-5.918-3.076s-2.197-4.814-2.197-8.291c0-5.175,1.348-9.394,4.043-12.656
			c2.695-3.262,6.182-4.893,10.459-4.893c1.523,0,3.798,0.176,6.826,0.527v15.088l0.029,2.725c0,2.754,0.268,4.629,0.806,5.625
			c0.537,0.996,1.548,1.494,3.032,1.494c4.296,0,6.445-4.316,6.445-12.949c0-7.05-1.534-12.495-4.6-16.333
			c-3.066-3.838-7.422-5.757-13.066-5.757c-6.348,0-11.616,2.388-15.806,7.163S9.976,49.959,9.976,57.205
			c0,7.207,1.934,12.945,5.801,17.212c3.867,4.268,9.082,6.401,15.645,6.401C34.038,80.818,37.007,80.388,40.327,79.529z
			 M35.083,45.545c-1.523-0.352-2.706-0.527-3.545-0.527c-5.958,0-8.936,4.57-8.936,13.711c0,5.254,1.562,7.881,4.688,7.881
			c2.91,0,5.508-2.314,7.793-6.943V45.545z"/>
	</g>
	<g>
		<path d="M66.657,73.006c0.435-2.59,1.052-4.829,1.854-6.716c0.801-1.887,2.22-4.478,4.256-7.771l9.074-14.6H64.726v-4.155h21.338
			v4.155c-8.521,12.563-13.289,22.259-14.308,29.087H66.657z"/>
		<path d="M106.144,73.006v-9.411H91.185v-3.347l14.959-20.484h4.155v20.215h4.447v3.616h-4.447v9.411H106.144z M95.52,59.978
			h10.916V45.199L95.52,59.978z"/>
	</g>
</g>
<g id="Calque_2">
</g>
</svg>
