<?xml version="1.0" encoding="utf-8"?>
<!-- Generator: Adobe Illustrator 13.0.2, SVG Export Plug-In . SVG Version: 6.00 Build 14948)  -->
<!DOCTYPE svg PUBLIC "-//W3C//DTD SVG 1.1//EN" "http://www.w3.org/Graphics/SVG/1.1/DTD/svg11.dtd">
<svg version="1.1" id="Layer_8" xmlns="http://www.w3.org/2000/svg" xmlns:xlink="http://www.w3.org/1999/xlink" x="0px" y="0px"
	 width="128.197px" height="128.113px" viewBox="0 0 128.197 128.113" enable-background="new 0 0 128.197 128.113"
	 xml:space="preserve">
<rect x="6.858" y="7.29" fill="#FFFFFF" width="121.161" height="115.123"/>
<rect x="33.655" y="91.551" opacity="0.6" fill="#FFFFFF" width="94.363" height="36.562"/>
<path fill="none" stroke="#B4C69B" stroke-width="18" d="M26.064,128.113V117.15c0-18.182,15.558-32.924,34.75-32.924h67.204"/>
<rect x="33.655" y="0.571" opacity="0.6" fill="#FFFFFF" width="94.363" height="36.562"/>
<path fill="none" stroke="#A3A3A4" stroke-width="18" d="M26.064,0.571v10.963c0,18.182,15.558,32.924,34.75,32.924h67.204"/>
<path fill="#565758" d="M102.22,44.455c0-5.108-3.984-9.252-12.603-9.252H68.552c-8.614,0-12.598,4.144-12.598,9.252l0,0
	c0,5.113,3.983,9.258,12.598,9.258h21.065C98.235,53.713,102.22,49.568,102.22,44.455L102.22,44.455z"/>
<path fill="#565758" d="M103.148,84.074c0-5.108-3.984-9.252-12.603-9.252H69.48c-8.614,0-12.598,4.144-12.598,9.252l0,0
	c0,5.113,3.983,9.258,12.598,9.258h21.065C99.164,93.332,103.148,89.188,103.148,84.074L103.148,84.074z"/>
<rect x="73.55" y="53.713" fill="#565758" width="11.604" height="21.109"/>
<rect x="0.019" y="0.113" opacity="0.25" fill="#A0CDEF" width="128" height="128"/>
<rect x="0.019" y="0.113" fill="#565758" width="9.889" height="8.385"/>
<rect x="19.668" y="0.279" fill="#565758" width="9.889" height="8.385"/>
<rect x="40.206" y="0.263" fill="#565758" width="9.889" height="8.385"/>
<rect x="59.983" y="0.247" fill="#565758" width="9.889" height="8.385"/>
<rect x="80.014" y="0.231" fill="#565758" width="9.889" height="8.385"/>
<rect x="100.298" y="0.215" fill="#565758" width="9.889" height="8.385"/>
<rect y="118.225" fill="#565758" width="8.385" height="9.889"/>
<rect x="0.166" y="98.575" fill="#565758" width="8.385" height="9.889"/>
<rect x="0.149" y="78.037" fill="#565758" width="8.385" height="9.889"/>
<rect x="0.134" y="58.26" fill="#565758" width="8.385" height="9.889"/>
<rect x="0.118" y="38.229" fill="#565758" width="8.385" height="9.889"/>
<rect x="0.102" y="17.945" fill="#565758" width="8.384" height="9.889"/>
<rect x="119.453" fill="#565758" width="8.744" height="8.385"/>
<rect x="19.49" y="119.729" fill="#565758" width="9.889" height="8.385"/>
<rect x="40.028" y="119.712" fill="#565758" width="9.889" height="8.385"/>
<rect x="59.805" y="119.696" fill="#565758" width="9.889" height="8.385"/>
<rect x="79.835" y="119.681" fill="#565758" width="9.889" height="8.385"/>
<rect x="100.12" y="119.664" fill="#565758" width="9.889" height="8.385"/>
<rect x="119.274" y="119.449" fill="#565758" width="8.744" height="8.385"/>
<rect x="119.579" y="98.422" fill="#565758" width="8.385" height="9.889"/>
<rect x="119.562" y="77.883" fill="#565758" width="8.385" height="9.889"/>
<rect x="119.547" y="58.106" fill="#565758" width="8.385" height="9.888"/>
<rect x="119.531" y="38.076" fill="#565758" width="8.385" height="9.889"/>
<rect x="119.515" y="17.792" fill="#565758" width="8.385" height="9.889"/>
</svg>
