<?xml version="1.0" encoding="utf-8"?>
<!-- Generator: Adobe Illustrator 13.0.1, SVG Export Plug-In . SVG Version: 6.00 Build 14948)  -->
<!DOCTYPE svg PUBLIC "-//W3C//DTD SVG 1.1//EN" "http://www.w3.org/Graphics/SVG/1.1/DTD/svg11.dtd">
<svg version="1.1" id="Layer_6" xmlns="http://www.w3.org/2000/svg" xmlns:xlink="http://www.w3.org/1999/xlink" x="0px" y="0px"
	 width="127.062px" height="128.238px" viewBox="0 0 127.062 128.238" enable-background="new 0 0 127.062 128.238"
	 xml:space="preserve">
<path fill="#FFFFFF" d="M122.264,110.828c0,6.796-5.51,12.305-12.305,12.305H17.914c-6.796,0-12.305-5.509-12.305-12.305V18.505
	c0-6.796,5.509-12.305,12.305-12.305h92.045c6.795,0,12.305,5.509,12.305,12.305V110.828z"/>
<rect x="18.074" y="0.192" fill="#565758" width="9.992" height="11.76"/>
<rect x="37.948" y="0.312" fill="#565758" width="9.992" height="11.76"/>
<rect x="58.33" fill="#565758" width="9.992" height="11.76"/>
<rect x="77.917" y="0.312" fill="#565758" width="9.992" height="11.76"/>
<rect x="98.347" y="0.312" fill="#565758" width="9.992" height="11.76"/>
<rect x="17.699" y="116.26" fill="#565758" width="9.992" height="11.76"/>
<rect x="37.573" y="116.38" fill="#565758" width="9.992" height="11.76"/>
<rect x="57.955" y="116.069" fill="#565758" width="9.992" height="11.76"/>
<rect x="77.542" y="116.38" fill="#565758" width="9.992" height="11.76"/>
<rect x="97.972" y="116.38" fill="#565758" width="9.992" height="11.76"/>
<rect x="0.531" y="88.74" fill="#565758" width="11.76" height="9.992"/>
<rect x="0.219" y="68.358" fill="#565758" width="11.76" height="9.992"/>
<rect x="0.531" y="48.77" fill="#565758" width="11.76" height="9.992"/>
<rect x="0.531" y="28.34" fill="#565758" width="11.76" height="9.992"/>
<path fill="#565758" d="M0.062,18.821h11.962c0,0-0.375-3.382,1.378-5.136L4.634,5.48C4.634,5.48-0.626,10.553,0.062,18.821z"/>
<path fill="#565758" d="M0.103,108.901h11.868c0,0-0.381,4.046,1.374,5.229l-9.006,7.976C4.339,122.105-0.546,117.071,0.103,108.901
	z"/>
<rect x="117.07" y="116.478" fill="#565758" width="9.992" height="11.76"/>
<rect x="117" y="0.353" fill="#565758" width="9.992" height="11.76"/>
<path fill="#A3A3A4" d="M119.039,59.832c0,21.258-20.02,38.491-44.715,38.491c-5.061,0-9.927-0.725-14.463-2.059
	c-0.232-0.068-27.691,14.875-27.612,14.646c2.718-7.948,9.809-23.737,8.371-25.785c-0.099-0.141-0.244-0.241-0.364-0.363
	c-6.638-6.716-10.644-15.42-10.644-24.929c0-21.257,20.019-38.489,44.712-38.489C99.019,21.343,119.039,38.575,119.039,59.832z"/>
<path fill="#FFF3AB" d="M117.252,57.603c0,21.258-20.02,38.491-44.715,38.491c-5.062,0-9.927-0.725-14.464-2.059
	c-0.232-0.068-27.691,14.875-27.612,14.646c2.718-7.948,9.809-23.737,8.371-25.785c-0.099-0.141-0.244-0.241-0.364-0.363
	c-6.638-6.716-10.644-15.42-10.644-24.929c0-21.257,20.019-38.489,44.713-38.489C97.233,19.113,117.252,36.346,117.252,57.603z"/>
<g>
	<path fill="#808284" d="M85.757,78.03c-1.619,0.78-5.459,1.74-10.318,1.74c-13.98,0-21.18-8.76-21.18-20.339
		c0-13.799,9.84-21.419,22.079-21.419c4.74,0,8.34,0.96,9.961,1.8l-1.92,7.2c-1.801-0.78-4.381-1.5-7.68-1.5
		c-7.201,0-12.84,4.38-12.84,13.439c0,8.1,4.799,13.199,12.899,13.199c2.82,0,5.82-0.54,7.68-1.319L85.757,78.03z"/>
</g>
</svg>
