<?xml version="1.0" encoding="utf-8"?>
<!-- Generator: Adobe Illustrator 13.0.2, SVG Export Plug-In . SVG Version: 6.00 Build 14948)  -->
<!DOCTYPE svg PUBLIC "-//W3C//DTD SVG 1.1//EN" "http://www.w3.org/Graphics/SVG/1.1/DTD/svg11.dtd">
<svg version="1.1" id="Layer_5" xmlns="http://www.w3.org/2000/svg" xmlns:xlink="http://www.w3.org/1999/xlink" x="0px" y="0px"
	 width="127.972px" height="127.933px" viewBox="0 0 127.972 127.933" enable-background="new 0 0 127.972 127.933"
	 xml:space="preserve">
<path fill="#BFDDF3" d="M127.858,114.47c0,7.436-6.039,13.463-13.488,13.463H13.486C6.038,127.933,0,121.905,0,114.47V13.462
	C0,6.026,6.038,0,13.486,0H114.37c7.449,0,13.488,6.026,13.488,13.462V114.47z"/>
<rect x="30.972" y="33.326" fill="#FFFFFF" width="62" height="62"/>
<path fill="#565758" d="M127.97,14.41l-0.114,23.279c-5.886,4.41-15.668,0.04-27.676-1.196
	c-13.661-2.058-24.085,18.377-27.962,22.254l23.754,9.246L49.5,73.715l4.973-47.874l11.015,23.901c0,0,14.39-26.327,24.33-28.487
	c13.043-2.834,25.292,1.443,30.407-0.84C128.292,16.813,127.97,14.41,127.97,14.41z"/>
</svg>
