<?xml version="1.0" encoding="utf-8"?>
<!-- Generator: Adobe Illustrator 13.0.1, SVG Export Plug-In . SVG Version: 6.00 Build 14948)  -->
<!DOCTYPE svg PUBLIC "-//W3C//DTD SVG 1.1//EN" "http://www.w3.org/Graphics/SVG/1.1/DTD/svg11.dtd">
<svg version="1.1" id="Layer_8" xmlns="http://www.w3.org/2000/svg" xmlns:xlink="http://www.w3.org/1999/xlink" x="0px" y="0px"
	 width="128px" height="128px" viewBox="0 0 128 128" enable-background="new 0 0 128 128" xml:space="preserve">
<path fill="#808284" d="M128,117.2c0,5.965-4.835,10.801-10.8,10.801H10.8C4.835,128,0,123.165,0,117.2V10.8C0,4.835,4.835,0,10.8,0
	h106.4c5.965,0,10.8,4.835,10.8,10.8V117.2z"/>
<linearGradient id="SVGID_1_" gradientUnits="userSpaceOnUse" x1="64.5005" y1="120.9771" x2="64.5005" y2="7.9775">
	<stop  offset="0" style="stop-color:#AFB0D1"/>
	<stop  offset="0.3069" style="stop-color:#B1B4D4"/>
	<stop  offset="0.5953" style="stop-color:#B7BFDC"/>
	<stop  offset="0.8753" style="stop-color:#C1D2EB"/>
	<stop  offset="1" style="stop-color:#C7DDF3"/>
</linearGradient>
<circle fill="url(#SVGID_1_)" cx="64.5" cy="64.477" r="56.5"/>
<path fill="#565758" d="M76.834,51.756v18.896c0,6.775-5.492,12.269-12.268,12.269l0,0c-6.775,0-12.269-5.493-12.269-12.269V32.858
	c0-6.775,5.493-12.268,12.269-12.268l0,0c6.775,0,12.268,5.493,12.268,12.268V51.756z"/>
<rect x="61.9" y="92.574" fill="#565758" width="5.334" height="17.675"/>
<rect x="53.929" y="105.509" fill="#565758" width="21.275" height="5.334"/>
<title>Layer 1</title>
<path fill="none" stroke="#565758" stroke-width="8" d="M86.254,60.082v3.217v5.778c0,12.609-9.72,22.829-21.711,22.829l0,0
	c-11.989,0-21.709-10.22-21.709-22.829v-8.995"/>
<circle fill="#FFFFFF" cx="60.97" cy="31.677" r="2.745"/>
<circle fill="#FFFFFF" cx="68.886" cy="37.505" r="2.746"/>
<circle fill="#FFFFFF" cx="61.035" cy="43.27" r="2.746"/>
<circle fill="#FFFFFF" cx="68.886" cy="49.158" r="2.746"/>
<circle fill="#FFFFFF" cx="60.863" cy="54.951" r="2.746"/>
<circle fill="#FFFFFF" cx="68.886" cy="60.699" r="2.746"/>
<circle fill="#FFFFFF" cx="60.973" cy="66.525" r="2.745"/>
<circle fill="#FFFFFF" cx="68.886" cy="72.352" r="2.746"/>
</svg>
