<?xml version="1.0" encoding="utf-8"?>
<!-- Generator: Adobe Illustrator 13.0.2, SVG Export Plug-In . SVG Version: 6.00 Build 14948)  -->
<!DOCTYPE svg PUBLIC "-//W3C//DTD SVG 1.1//EN" "http://www.w3.org/Graphics/SVG/1.1/DTD/svg11.dtd">
<svg version="1.1" id="Layer_5" xmlns="http://www.w3.org/2000/svg" xmlns:xlink="http://www.w3.org/1999/xlink" x="0px" y="0px"
	 width="136.392px" height="128px" viewBox="0 0 136.392 128" enable-background="new 0 0 136.392 128" xml:space="preserve">
<path fill="none" stroke="#000000" d="M1.561,60.594"/>
<path fill="none" stroke="#000000" d="M0,65.522"/>
<line fill="none" stroke="#FFFFFF" stroke-width="5" stroke-linecap="round" x1="132.404" y1="103.027" x2="91.61" y2="41.154"/>
<line fill="none" stroke="#FFFFFF" stroke-width="5" stroke-linecap="round" x1="70.701" y1="44.501" x2="12.392" y2="121.164"/>
<path fill="#FFFFFF" d="M65.747,45.279c3.408,9.363,13.795,14.176,23.205,10.751s14.278-13.79,10.87-23.153
	c-3.409-9.365-13.802-14.18-23.211-10.754C67.201,25.548,62.339,35.914,65.747,45.279z"/>
<path fill="#565758" d="M136.392,117.199c0,5.965-4.835,10.801-10.8,10.801h-106.4c-5.965,0-10.8-4.836-10.8-10.801V10.8
	c0-5.964,4.835-10.8,10.8-10.8h106.4c5.965,0,10.8,4.835,10.8,10.8V117.199z"/>
<line fill="none" stroke="#FFFFFF" stroke-width="5" stroke-linecap="round" x1="128.38" y1="92.782" x2="91.384" y2="36.668"/>
<line fill="none" stroke="#FFFFFF" stroke-width="5" stroke-linecap="round" x1="70.725" y1="40.333" x2="14.988" y2="113.613"/>
<path fill="#EABFD3" d="M65.64,40.64c3.407,9.363,13.795,14.176,23.205,10.751s14.277-13.79,10.87-23.153
	c-3.409-9.365-13.802-14.18-23.211-10.755C67.094,20.908,62.23,31.274,65.64,40.64z"/>
</svg>
