<?xml version="1.0" encoding="utf-8"?>
<!-- Generator: Adobe Illustrator 13.0.1, SVG Export Plug-In . SVG Version: 6.00 Build 14948)  -->
<!DOCTYPE svg PUBLIC "-//W3C//DTD SVG 1.1//EN" "http://www.w3.org/Graphics/SVG/1.1/DTD/svg11.dtd">
<svg version="1.1" id="Layer_5" xmlns="http://www.w3.org/2000/svg" xmlns:xlink="http://www.w3.org/1999/xlink" x="0px" y="0px"
	 width="128px" height="128.245px" viewBox="0 0 128 128.245" enable-background="new 0 0 128 128.245" xml:space="preserve">
<path opacity="0.6" fill="#FFFFFF" d="M125.439,0.245v109.603c0,9.606-5.935,17.397-13.255,17.397H16.028
	c-7.32,0-13.256-7.791-13.256-17.397V0.245H125.439z"/>
<path fill="#B0AFD1" stroke="#000000" d="M111.693,34.097"/>
<polygon fill="#B0AFD1" points="2.204,87.68 98.327,0.244 84.242,0.245 2.771,74.352 "/>
<polygon fill="#B0AFD1" points="1.549,113.243 106.082,18.16 90.703,19.336 1.549,100.43 "/>
<polygon fill="#B0AFD1" points="125.129,26.047 18.223,123.29 5.509,122.046 109.747,27.226 "/>
<polygon fill="#B0AFD1" points="40.203,128.245 128,48.385 128,44.633 116.745,45.81 26.216,128.245 "/>
<polygon fill="#B0AFD1" points="66.771,128.245 128,72.549 128,62.687 124.459,62.958 52.684,128.245 "/>
<path fill="#B0AFD1" d="M94.777,128.245L128,98.025v-12.81c0,0-23.094,21.005-47.309,43.029H94.777z"/>
<polygon fill="#B0AFD1" points="0,65.352 71.577,0.245 57.493,0.245 0,52.542 "/>
<polygon fill="#B0AFD1" points="128,10.494 94.77,40.723 110.147,39.543 128,23.304 "/>
<polygon fill="#B0AFD1" points="128,35.415 107.831,53.761 123.212,52.583 128,48.227 "/>
<polygon fill="#B0AFD1" points="111.542,0.245 68.162,39.703 83.543,38.525 126.407,0.537 "/>
<polygon fill="#B0AFD1" points="0,40.463 44.214,0.244 30.131,0.245 0.797,26.927 "/>
<polygon fill="#B0AFD1" points="2.342,0.506 2.771,11.928 15.615,0.245 "/>
<path fill="#B0AFD1" d="M125.359,0"/>
<path opacity="0.6" fill="#DBDE88" d="M110.75,36.754c0,5.391-4.483,9.76-10.016,9.76H27.16c-5.533,0-10.016-4.369-10.016-9.76l0,0
	c0-5.391,4.483-9.76,10.016-9.76h73.574C106.267,26.995,110.75,31.364,110.75,36.754L110.75,36.754z"/>
<path fill="none" stroke="#565758" stroke-width="10" d="M110.75,36.754c0,5.39-4.483,9.759-10.016,9.759H27.16
	c-5.533,0-10.016-4.369-10.016-9.759l0,0c0-5.391,4.483-9.76,10.016-9.76h73.574C106.267,26.995,110.75,31.364,110.75,36.754
	L110.75,36.754z"/>
<path fill="none" stroke="#808284" stroke-width="5" d="M125.439,0.245v108.048c0,9.606-5.935,17.397-13.255,17.397H16.028
	c-7.32,0-13.256-7.791-13.256-17.397V0.245"/>
</svg>
