<?xml version="1.0"?>
<!DOCTYPE svg PUBLIC "-//W3C//DTD SVG 1.1//EN" "http://www.w3.org/Graphics/SVG/1.1/DTD/svg11.dtd">
<svg xmlns="http://www.w3.org/2000/svg" xmlns:xl="http://www.w3.org/1999/xlink" version="1.1" viewBox="136 131 54 54" width="54pt" height="54pt"><metadata xmlns:dc="http://purl.org/dc/elements/1.1/"><dc:date>2007-08-02 17:28Z</dc:date><!-- Produced by OmniGraffle Professional 4.1.2 --></metadata><defs></defs><g stroke="none" stroke-opacity="1" stroke-dasharray="none" fill="none" fill-opacity="1"><title>Canvas 1</title><g><title>Layer 1</title><path d="M 163 134 L 180 134 C 183.866 134 187 137.134 187 141 L 187 175 C 187 178.866 183.866 182 180 182 L 146 182 C 142.134 182 139 178.866 139 175 L 139 141 C 139 137.134 142.134 134 146 134 C 146 134 146 134 146 134 Z" fill="White"/><path d="M 163 134 L 180 134 C 183.866 134 187 137.134 187 141 L 187 175 C 187 178.866 183.866 182 180 182 L 146 182 C 142.134 182 139 178.866 139 175 L 139 141 C 139 137.134 142.134 134 146 134 C 146 134 146 134 146 134 Z" stroke="#666" stroke-linecap="round" stroke-linejoin="round" stroke-width="3"/><circle cx="163" cy="158" r="18.000042" fill="#c9ba58"/></g></g></svg>
