<?xml version="1.0" encoding="utf-8"?>
<!-- Generator: Adobe Illustrator 13.0.1, SVG Export Plug-In . SVG Version: 6.00 Build 14948)  -->
<!DOCTYPE svg PUBLIC "-//W3C//DTD SVG 1.1//EN" "http://www.w3.org/Graphics/SVG/1.1/DTD/svg11.dtd">
<svg version="1.1" id="Layer_3" xmlns="http://www.w3.org/2000/svg" xmlns:xlink="http://www.w3.org/1999/xlink" x="0px" y="0px"
	 width="136.392px" height="128px" viewBox="0 0 136.392 128" enable-background="new 0 0 136.392 128" xml:space="preserve">
<path fill="none" stroke="#000000" d="M1.561,60.594"/>
<path fill="none" stroke="#000000" d="M0,65.522"/>
<line fill="none" stroke="#FFFFFF" stroke-width="5" stroke-linecap="round" x1="132.404" y1="103.027" x2="91.61" y2="41.154"/>
<line fill="none" stroke="#FFFFFF" stroke-width="5" stroke-linecap="round" x1="70.701" y1="44.501" x2="12.392" y2="121.164"/>
<path fill="#FFFFFF" d="M65.747,45.279c3.408,9.363,13.795,14.176,23.205,10.751s14.278-13.79,10.87-23.153
	c-3.409-9.365-13.802-14.18-23.211-10.754C67.201,25.548,62.339,35.914,65.747,45.279z"/>
<path fill="#D9DADC" d="M136.392,117.199c0,5.965-4.835,10.801-10.8,10.801h-106.4c-5.965,0-10.8-4.836-10.8-10.801V10.8
	c0-5.964,4.835-10.8,10.8-10.8h106.4c5.965,0,10.8,4.835,10.8,10.8V117.199z"/>
<rect x="9.559" y="91.73" fill="#565758" width="16.103" height="16.103"/>
<rect x="20.006" y="72.529" fill="#565758" width="16.102" height="16.103"/>
<rect x="30.058" y="53.737" fill="#565758" width="16.103" height="16.104"/>
<rect x="49.913" y="65.474" fill="#565758" width="16.104" height="16.103"/>
<rect x="69.183" y="77.934" fill="#565758" width="16.104" height="16.104"/>
<rect x="87.777" y="65.304" fill="#565758" width="16.104" height="16.104"/>
<rect x="104.817" y="47.202" fill="#565758" width="16.104" height="16.103"/>
<rect x="119.954" y="26.409" fill="#565758" width="16.104" height="16.104"/>
</svg>
