<?xml version="1.0" encoding="utf-8"?>
<!-- Generator: Adobe Illustrator 13.0.2, SVG Export Plug-In . SVG Version: 6.00 Build 14948)  -->
<!DOCTYPE svg PUBLIC "-//W3C//DTD SVG 1.1//EN" "http://www.w3.org/Graphics/SVG/1.1/DTD/svg11.dtd">
<svg version="1.1" id="Layer_7" xmlns="http://www.w3.org/2000/svg" xmlns:xlink="http://www.w3.org/1999/xlink" x="0px" y="0px"
	 width="128px" height="128px" viewBox="0 0 128 128" enable-background="new 0 0 128 128" xml:space="preserve">
<path fill="#3C3C3C" d="M128,117.199c0,5.965-4.835,10.801-10.8,10.801H10.8C4.835,128,0,123.164,0,117.199V10.8
	C0,4.835,4.835,0,10.8,0h106.4c5.965,0,10.8,4.835,10.8,10.8V117.199z"/>
<path fill="none" stroke="#B3B3B3" stroke-width="5" d="M27.781,121c0,0-3.709-12.534,0.848-31.245c0,0,3.848-7.384,3.361-13.04
	c0,0-4.876-13.434-3.383-15.722"/>
<path fill="none" stroke="#B3B3B3" stroke-width="5" d="M32.028,77.902c0,0,6.238,13.048,12.897,19.707
	c6.537,6.537,7.17,5.836,8.858,7.525c2.088,2.088,6.266,2.486,7.658,2.486c1.913,0,3.689-0.759,5.511-1.991
	c2.754-1.863,5.551-4.951,7.822-7.224c1.393-1.394,14.578-13.481,16.17-16.666s4.58-3.822,6.518-16.966
	c0.992-6.735,0.992-4.913,0.992-6.735s1.195-10.18,2.588-13.563c1.395-3.383,6.27-15.622,3.582-18.308
	c-1.639-1.639-3.582-0.001-5.174,1.592c-1.592,1.592-10.611,7.479-13.281,10.148c-2.387,2.389-12.24,4.578-19.156,4.578
	c-3.183,0-13.211-1.064-16.724-4.578c-1.891-1.89-17.097-19.203-19.493-20.497c-1.61-0.869-0.644,34.522-1.179,36.465
	c-0.766,2.78-1.291,8.652-1.291,8.652"/>
<path fill="none" stroke="#B3B3B3" stroke-width="5" d="M93.545,79.338c0,0,3.102,10.84,5.711,16.686
	c3.227,7.226,2.174,20.399,0.781,24.977"/>
<path fill="none" stroke="#FFFFFF" stroke-width="5" d="M55.641,71.587c-0.458,10.658-9.198,18.936-19.52,18.49l-10.936-0.472
	C12.089,87.619,7.329,80.62,7.329,69.505l0,0c0.46-10.659,0.582-17.908,19.521-17.463l13.13,0.906
	C52.494,55.893,56.101,60.929,55.641,71.587L55.641,71.587z"/>
<path fill="none" stroke="#FFFFFF" stroke-width="5" d="M70.596,77.312c1.256,11.8,8.264,15.921,18.594,17.193l10.945,0.076
	c13.18-1.331,18.283-8.083,18.838-19.185l0,0c0.074-10.67-1.111-15.461-18.623-17.386l-13.16,0.196
	c-11.072,0.745-16.5,6.188-16.572,16.857L70.596,77.312z"/>
<path fill="none" stroke="#FFFFFF" stroke-width="5" d="M54.553,63.191c0,0,6.547,2.926,9.048,2.824
	c2.5-0.101,7.833,0.335,9.946-1.679"/>
<path fill="none" stroke="#FFFFFF" stroke-width="5" d="M55.66,69.057c0,0,2.664-1.235,7.233-0.961
	c4.57,0.275,6.972,1.231,7.978,2.367"/>
</svg>
