<?xml version="1.0" encoding="utf-8"?>
<!-- Generator: Adobe Illustrator 13.0.2, SVG Export Plug-In . SVG Version: 6.00 Build 14948)  -->
<!DOCTYPE svg PUBLIC "-//W3C//DTD SVG 1.1//EN" "http://www.w3.org/Graphics/SVG/1.1/DTD/svg11.dtd">
<svg version="1.1" id="Layer_3" xmlns="http://www.w3.org/2000/svg" xmlns:xlink="http://www.w3.org/1999/xlink" x="0px" y="0px"
	 width="128px" height="128px" viewBox="0 0 128 128" enable-background="new 0 0 128 128" xml:space="preserve">
<path fill="#FFFFFF" d="M128,117.199c0,5.965-4.835,10.801-10.8,10.801H10.8C4.835,128,0,123.164,0,117.199V10.8
	C0,4.835,4.835,0,10.8,0h106.4c5.965,0,10.8,4.835,10.8,10.8V117.199z"/>
<path fill="#D9DADC" d="M128,64v53.2c0,5.965-4.835,10.801-10.8,10.801H64V64c-5.965,0-64,0-64,0l0,0V10.8C0,4.835,4.835,0,10.8,0
	H64v64C69.965,64,128,64,128,64L128,64z"/>
<g>
	<path fill="#565758" d="M25.807,79.514V55.387h-4.16V48.22h4.16v-1.216c0-3.775,1.152-7.936,3.903-10.495
		c2.496-2.304,5.824-3.136,8.704-3.136c2.111,0,3.775,0.32,5.119,0.64L43.15,41.5c-0.832-0.256-1.855-0.448-3.136-0.448
		c-3.2,0-4.544,2.496-4.544,5.568v1.6h6.271v7.167h-6.207v24.126H25.807z"/>
	<path fill="#565758" d="M48.078,58.715c0-4.096-0.128-7.552-0.256-10.496h8.447l0.448,4.352h0.128
		c2.304-3.264,5.888-5.056,10.432-5.056c6.848,0,12.99,5.952,12.99,15.935c0,11.391-7.23,16.767-14.207,16.767
		c-3.776,0-6.719-1.536-8.127-3.584h-0.128v15.551h-9.728V58.715z M57.805,66.074c0,0.769,0.064,1.408,0.192,2.049
		c0.64,2.623,2.88,4.607,5.695,4.607c4.223,0,6.719-3.52,6.719-8.832c0-4.992-2.24-8.768-6.591-8.768
		c-2.752,0-5.184,2.048-5.823,4.928c-0.128,0.512-0.192,1.152-0.192,1.728V66.074z"/>
	<path fill="#565758" d="M87.887,71.066c1.791,1.088,5.504,2.304,8.383,2.304c2.943,0,4.16-0.96,4.16-2.56
		c0-1.664-0.961-2.432-4.545-3.648c-6.527-2.111-9.023-5.695-8.959-9.343c0-5.888,4.992-10.303,12.736-10.303
		c3.646,0,6.846,0.896,8.766,1.856l-1.662,6.655c-1.408-0.704-4.16-1.728-6.785-1.728c-2.367,0-3.711,0.96-3.711,2.496
		c0,1.536,1.217,2.304,5.055,3.647c5.953,1.984,8.385,5.055,8.449,9.6c0,5.887-4.545,10.175-13.504,10.175
		c-4.096,0-7.744-0.96-10.111-2.24L87.887,71.066z"/>
</g>
</svg>
