<?xml version="1.0" encoding="utf-8"?>
<!-- Generator: Adobe Illustrator 13.0.1, SVG Export Plug-In . SVG Version: 6.00 Build 14948)  -->
<!DOCTYPE svg PUBLIC "-//W3C//DTD SVG 1.1//EN" "http://www.w3.org/Graphics/SVG/1.1/DTD/svg11.dtd">
<svg version="1.1" id="Layer_4" xmlns="http://www.w3.org/2000/svg" xmlns:xlink="http://www.w3.org/1999/xlink" x="0px" y="0px"
	 width="128.248px" height="128px" viewBox="0 0 128.248 128" enable-background="new 0 0 128.248 128" xml:space="preserve">
<path fill="#DBDE88" d="M128.248,117.2c0,5.965-4.835,10.8-10.8,10.8h-106.4c-5.964,0-10.8-4.835-10.8-10.8V10.8
	c0-5.965,4.835-10.8,10.8-10.8h106.4c5.965,0,10.8,4.835,10.8,10.8V117.2z"/>
<path fill="#FFF3AB" d="M39.147,67.163l89.101-0.049V12.167C128.248,5.447,123.221,0,117.02,0H39.722L39.147,67.163z"/>
<rect x="59.395" y="57.406" fill="#565758" width="9.992" height="9.766"/>
<rect x="78.982" y="57.399" fill="#565758" width="9.992" height="9.768"/>
<rect x="99.412" y="57.366" fill="#565758" width="9.992" height="9.767"/>
<rect x="118.064" y="57.433" fill="#565758" width="9.992" height="9.766"/>
<rect y="57.312" fill="#565758" width="9.992" height="9.767"/>
<rect x="20.061" y="57.495" fill="#565758" width="9.992" height="9.766"/>
<rect x="39.075" y="78.311" fill="#565758" width="9.766" height="9.992"/>
<rect x="39.147" y="57.44" fill="#565758" width="9.766" height="9.777"/>
<rect x="39.141" y="39.341" fill="#565758" width="9.768" height="9.992"/>
<rect x="39.107" y="18.911" fill="#565758" width="9.767" height="9.992"/>
<rect x="39.175" y="0.259" fill="#565758" width="9.766" height="9.992"/>
<rect x="39.054" y="117.69" fill="#565758" width="9.767" height="9.992"/>
<rect x="39.236" y="97.263" fill="#565758" width="9.766" height="9.992"/>
</svg>
