<?xml version="1.0" encoding="utf-8"?>
<!-- Generator: Adobe Illustrator 13.0.1, SVG Export Plug-In . SVG Version: 6.00 Build 14948)  -->
<!DOCTYPE svg PUBLIC "-//W3C//DTD SVG 1.1//EN" "http://www.w3.org/Graphics/SVG/1.1/DTD/svg11.dtd">
<svg version="1.1" id="Layer_6" xmlns="http://www.w3.org/2000/svg" xmlns:xlink="http://www.w3.org/1999/xlink" x="0px" y="0px"
	 width="128px" height="128.054px" viewBox="0 0 128 128.054" enable-background="new 0 0 128 128.054" xml:space="preserve">
<path fill="#DBDE88" d="M128,117.2c0,5.965-4.835,10.8-10.8,10.8H10.8C4.835,128,0,123.165,0,117.2V10.8C0,4.835,4.835,0,10.8,0
	h106.4c5.965,0,10.8,4.835,10.8,10.8V117.2z"/>
<g>
	<path d="M71.846,9.141h9.669v27.1c0,12.214-5.852,16.476-15.203,16.476c-2.291,0-5.217-0.382-7.125-1.018l1.082-7.825
		c1.335,0.445,3.053,0.763,4.961,0.763c4.071,0,6.616-1.845,6.616-8.46V9.141z"/>
	<path d="M91.501,42.093c2.545,1.336,6.615,2.672,10.75,2.672c4.453,0,6.808-1.845,6.808-4.708c0-2.608-2.036-4.198-7.188-5.979
		c-7.125-2.545-11.832-6.489-11.832-12.787c0-7.315,6.17-12.85,16.221-12.85c4.898,0,8.397,0.955,10.942,2.163l-2.163,7.761
		c-1.654-0.827-4.771-2.036-8.906-2.036c-4.198,0-6.234,1.972-6.234,4.135c0,2.736,2.354,3.944,7.952,6.107
		c7.57,2.799,11.069,6.743,11.069,12.85c0,7.188-5.471,13.295-17.24,13.295c-4.898,0-9.732-1.336-12.15-2.672L91.501,42.093z"/>
</g>
<path fill="#565758" d="M58.331,35.416c0,0-22.441,7.361-31.035,19.599c0,0-7.174,13.122,4.555,29.158
	c0,0,11.074,10.38,29.513,13.558c0,0,10.573,0.703,15.562-6.824c0,0,12.465-22.034,6.661-36.88l-1.341-1.183
	c0,0-8.709,18.19-14.512,22.063c0,0-1.104,1.044-4.855,0.305l-12.225-5.279c0,0-6.592-5.632-5.889-9.965
	c0,0,12.971-21.587,14.427-23.239L58.331,35.416z"/>
<path fill="#565758" d="M61.363,97.73c0,0-5.111-0.656-7.368,3.775L41.924,128h-8.21l9.842-21.94
	c1.067-7.866-2.016-7.284-2.016-7.284c-3.193-1.166-6.713,4.906-6.713,4.906L22.968,128c-1.552,0.098-7.758,0.031-7.758,0.031
	l14.907-34.195c1.675-4.395,0.29-10.938,0.29-10.938s7.372,6.617,13.993,9.375C44.399,92.273,54.871,97.289,61.363,97.73z"/>
<path fill="#A3A3A4" stroke="#808284" stroke-linecap="round" stroke-linejoin="round" d="M57.518,34.879
	c0,0-23.792,6.168-32.386,18.406c0,0-7.174,13.123,4.555,29.158c0,0,11.074,10.381,29.513,13.558c0,0,10.573,0.702,15.562-6.824
	c0,0,12.465-22.034,6.661-36.88l-1.341-1.183c0,0-8.709,18.191-14.512,22.064c0,0-1.104,1.043-4.855,0.304l-12.225-5.279
	c0,0-6.592-5.631-5.889-9.966c0,0,14.322-20.396,15.778-22.047L57.518,34.879z"/>
<path fill="#A3A3A4" stroke="#808284" stroke-linecap="round" stroke-linejoin="round" d="M59.199,96.001
	c0,0-5.111-0.657-7.368,3.774l-11.956,27.75h-8.228l9.744-23.195c1.067-7.867-2.016-7.285-2.016-7.285
	c-3.193-1.164-6.713,4.906-6.713,4.906L20.93,127.438c-1.552,0.097-8.097,0-8.097,0l15.119-35.331
	c1.675-4.396,0.29-10.939,0.29-10.939s7.372,6.617,13.993,9.376C42.235,90.544,52.707,95.559,59.199,96.001z"/>
</svg>
