<?xml version="1.0" encoding="utf-8"?>
<!-- Generator: Adobe Illustrator 11 Build 196, SVG Export Plug-In . SVG Version: 6.0.0 Build 78)  -->
<!DOCTYPE svg PUBLIC "-//W3C//DTD SVG 1.0//EN"    "http://www.w3.org/TR/2001/REC-SVG-20010904/DTD/svg10.dtd" [
	<!ENTITY ns_flows "http://ns.adobe.com/Flows/1.0/">
	<!ENTITY ns_svg "http://www.w3.org/2000/svg">
	<!ENTITY ns_xlink "http://www.w3.org/1999/xlink">
]>
<svg  xmlns="&ns_svg;" xmlns:xlink="&ns_xlink;" xmlns:a="http://ns.adobe.com/AdobeSVGViewerExtensions/3.0/"
	 width="128.11" height="92.503" viewBox="0 0 128.11 92.503" style="overflow:visible;enable-background:new 0 0 128.11 92.503"
	 xml:space="preserve">
	<style type="text/css">
	<![CDATA[
		.st0{fill:#808284;}
		.st1{fill:#565758;}
		.st2{fill:#FFFFFF;}
		.st3{fill:#D9DADC;}
	]]>
	</style>
	<metadata>
<?xpacket begin='﻿' id='W5M0MpCehiHzreSzNTczkc9d'?><x:xmpmeta xmlns:x='adobe:ns:meta/' x:xmptk='XMP toolkit 3.0-29, framework 1.6'>
<rdf:RDF xmlns:rdf='http://www.w3.org/1999/02/22-rdf-syntax-ns#' xmlns:iX='http://ns.adobe.com/iX/1.0/'>

 <rdf:Description rdf:about='uuid:da266544-dbd8-11db-9485-000d932a3d9a'
  xmlns:pdf='http://ns.adobe.com/pdf/1.3/'>
 </rdf:Description>

 <rdf:Description rdf:about='uuid:da266544-dbd8-11db-9485-000d932a3d9a'
  xmlns:tiff='http://ns.adobe.com/tiff/1.0/'>
 </rdf:Description>

 <rdf:Description rdf:about='uuid:da266544-dbd8-11db-9485-000d932a3d9a'
  xmlns:xap='http://ns.adobe.com/xap/1.0/'
  xmlns:xapGImg='http://ns.adobe.com/xap/1.0/g/img/'>
  <xap:CreateDate>2007-03-06T23:23:08Z</xap:CreateDate>
  <xap:ModifyDate>2007-03-26T20:46:01Z</xap:ModifyDate>
  <xap:CreatorTool>Illustrator</xap:CreatorTool>
  <xap:MetadataDate>2007-03-26T13:08:25-07:00</xap:MetadataDate>
  <xap:Thumbnails>
   <rdf:Alt>
    <rdf:li rdf:parseType='Resource'>
     <xapGImg:format>JPEG</xapGImg:format>
     <xapGImg:width>256</xapGImg:width>
     <xapGImg:height>188</xapGImg:height>
     <xapGImg:image>/9j/4AAQSkZJRgABAgEASABIAAD/7QAsUGhvdG9zaG9wIDMuMAA4QklNA+0AAAAAABAASAAAAAEA&#xA;AQBIAAAAAQAB/+4ADkFkb2JlAGTAAAAAAf/bAIQABgQEBAUEBgUFBgkGBQYJCwgGBggLDAoKCwoK&#xA;DBAMDAwMDAwQDA4PEA8ODBMTFBQTExwbGxscHx8fHx8fHx8fHwEHBwcNDA0YEBAYGhURFRofHx8f&#xA;Hx8fHx8fHx8fHx8fHx8fHx8fHx8fHx8fHx8fHx8fHx8fHx8fHx8fHx8fHx8f/8AAEQgAvAEAAwER&#xA;AAIRAQMRAf/EAaIAAAAHAQEBAQEAAAAAAAAAAAQFAwIGAQAHCAkKCwEAAgIDAQEBAQEAAAAAAAAA&#xA;AQACAwQFBgcICQoLEAACAQMDAgQCBgcDBAIGAnMBAgMRBAAFIRIxQVEGE2EicYEUMpGhBxWxQiPB&#xA;UtHhMxZi8CRygvElQzRTkqKyY3PCNUQnk6OzNhdUZHTD0uIIJoMJChgZhJRFRqS0VtNVKBry4/PE&#xA;1OT0ZXWFlaW1xdXl9WZ2hpamtsbW5vY3R1dnd4eXp7fH1+f3OEhYaHiImKi4yNjo+Ck5SVlpeYmZ&#xA;qbnJ2en5KjpKWmp6ipqqusra6voRAAICAQIDBQUEBQYECAMDbQEAAhEDBCESMUEFURNhIgZxgZEy&#xA;obHwFMHR4SNCFVJicvEzJDRDghaSUyWiY7LCB3PSNeJEgxdUkwgJChgZJjZFGidkdFU38qOzwygp&#xA;0+PzhJSktMTU5PRldYWVpbXF1eX1RlZmdoaWprbG1ub2R1dnd4eXp7fH1+f3OEhYaHiImKi4yNjo&#xA;+DlJWWl5iZmpucnZ6fkqOkpaanqKmqq6ytrq+v/aAAwDAQACEQMRAD8A9U4q7FXYq7FXYql1/qfp&#xA;t9Xth6lwdttwp/riqrYWckIMkzl55PtEmoHsMVQ/mLzHpmgae15fSU6iGEEc5G/lQfr8MVeD+Z/N&#xA;+r+Ybx5bqRktq/ubNWPpoO237TeLHChJMKoywtVKS3txP9T0+0AN1ed15dEQbc5H6Ko/AAnAqQ+Z&#xA;/P8AresFLSG5ntdGtlEdpYiRvsL0aUinqOepJ+igxVj/ANevf+WiX/g2/rirvr17/wAtEv8Awbf1&#xA;xVVTWdYjUJHfXCIOirK4A+gHFWV/l/5c84ecNV+r2+oXUOnwkG+vjLIVjU/srv8AE7dh/DFX1Ja2&#xA;621rDbqzOsKLGryHk7BABVmPUmm5wJVcVYj5+892/l60NvbMsmrzL+5j6iMH/djj/iI7/LFXiV5r&#xA;Gq3tw1xd3cs0zmrOzn7h2A9hhQofW7r/AH8//BH+uKppDrLeWLSLXbyZnvpAW0WwLtWRgSvrzAGo&#xA;hU1/1zt0rirz/VPMuv6rdvd6hqE9xO5qWZ2oK9lUGij2AxVCfXr3/lol/wCDb+uKu+vXv/LRL/wb&#xA;f1xVm/5V+S9Z82a0sklxPDpFiyveXKuwJINVijNftt4/sjfwqpfUWBXYqo3d3bWltLdXMgit4VLy&#xA;yN0CjqcVeJ+YvzS8w3uqNLpdy9lYxmlvEoXkwH7UlQ1SfDphpCf+Vfzhd5ktfMCIqN8IvogRQ+Mi&#xA;b7e6/djS29RR0kRZI2Do4DI6moIO4IIwJXYq7FXYq0SAKnpiqUXuqSTP9WsqsW2Ljqf9X+uFUXp2&#xA;mx2q8m+KZh8TeHsMCoHzV5s0zy5YfWLs855Ki2tlPxyMP1KO7Yq8F8weYdT13UGvb+Tm52jjGyRp&#xA;XZUHhhQluFUXZ2kDQy31/L9V0u2p9ZuaVYk/ZiiUkc5Hp8K/SaAE4FYt5n8zPrEyQ28X1TSbYn6l&#xA;ZA8qV6ySN+3K9Pib6BQADFUkxV2KuxVkvkTyJq3m/VhaWg9K0io17esKpEh/W5/ZXv8AKpxV9UeX&#xA;PLul+XtIg0rTIvTtoB1O7u5+07nuzH/OmBKZ4qxLz558tfLtr6EHGbVpl/cw9RGD/uyT28B3xV4X&#xA;eXl1eXUt1dStNcTMWkkY1JJwoUcKo+L9H6Vp41vV0MluWK6fYbhruVeor+zEh+23+xG/QKwTWNY1&#xA;DWNQlv7+X1biWnaiqo2VEUbKqjYAdMVQWKuxVP8AyT5O1LzZrkWmWQ4p9u7uSPhiiB+Jj79lHc4q&#xA;+r/L2gaZoGkW+labH6drbrQV3Z2P2nc92Y7nAlMsVaJABJNANyTirxP8yvPZ1m5Omae/+4q3b43H&#xA;+7pF/a/1F/Z+/wAMKGC4Vdir2T8q/MNrFYQeXr+9B1eQPc2dk3IutpxUrU04rX4mVSa8d6UwFL0P&#xA;ArsVWySJGhd2CovUnFUju7+4v5fq9spEZ7d29z4DCqZ2GnxWibfFK323/gPbAqTecvOun+W7OrkT&#xA;ahKtba0B3Pbm9Oij8e2KvCdY1jUNXv5b6/lMs8p/2KjsqjsowoQWFUbZWELW02o3831TSbWgnuaV&#xA;ZnO6wwrtzkbsO3U0GBWI+ZPMk+sTxokf1XTbWq2VkpqEB6sx25yPT437+wAAVSfFXYq7FWQeSPJW&#xA;q+btZXT7EcIko93dMKpDHWnI+JP7K9/lU4q+qfK3lbSPLOkRaZpkXCJN5JDvJLIftSSN3Y/h0G2B&#xA;Kb4qxLz558tfLtr6EHGbVpl/cw9RGD/uyT28B3xV4XeXl1eXUt1dStNcTMWkkY1JJwoUcKo63hsb&#xA;OxfWdX5DTYm4RQqeMl1MBUQxk9AOrv8Asj3IwKwnXtdvtb1F727IBoEggTaOGJfsRRr2VR/U74ql&#xA;2KuxVHaJouo63qtvpenRGa8uW4xp2Hcsx7Ko3JxV9XeQ/JOneUdDTT7WklzJR726I+KWWnX2Veij&#xA;sPeuBLJMVdiryz80vPlPV8v6ZJuRx1CdT98Kkf8AD/d44UPK8KuxVErNaaZYtq98gkjRjHY2rf8A&#xA;HxOADQj/AH3HUNJ9C/tYFSXyV5ku7b8wtM1q7laSaS8X61KepWc+lIf+Bc7Yq+uMCVK5uYbeMySm&#xA;g7DuT4DFUhmnu9SuBGgon7KDoB4scKE6srGK0j4ru5+256n+zAljfnnz7ZeXYDBDxuNVkH7qCu0Y&#xA;I2eSnbwHfFXhuoahe6hdyXl7M09zKavI5qT/AEA7DChD4VR1jYW5t5dR1KU2mj2x/f3FKs7dRDCp&#xA;+3K3h26nbArEvM/me41u4jVYxa6ZagpYWCGqxqerMf25H6u56/KgxVJcVdirsVTzyf5Q1XzVrUWm&#xA;aetK/FcXDAlIYx1d6fgO52xV9U+UvKWkeVtIj03TY6KPinnanqSyU3dz+odsCU7xViXnzz5a+XbX&#xA;0IOM2rTL+5h6iMH/AHZJ7eA74q8LvLy6vLqW6upWmuJmLSSMakk4UKOFUbZ2tottNqepSGDSrQgS&#xA;sP7yWQ7rBCD1kf7lHxHArDvMfmG61u+E8iLBbRL6VnZR19OCIdEWvU92Y7sd8VSrFXYqqW9vPczx&#xA;29vG0s8zCOKJBVmZjRVAHUk4q+oPyp/LaDylpf1i7VX128QfW5NiIl6iFD4D9o9z7AYEs8xV2KsG&#xA;/Mnz0NEtTptg4Oq3C7sDvBG37X+sf2fv+ZV4kzMzFmJLE1JO5JOFDWKoizt4ZPVnupPQsLVfVu5+&#xA;pVK0CqD1dz8KDufauBWI+YNcl1i/9Yp6NrEoisrUGqxQqSQte5JJZm7sScVS1HZHV1NGUgqfAjcY&#xA;q+1b6/htEq3xSH7MY6n+zAlIwLvUrnfc9z+yowoT+zs4bWLhGKk/aY9ScCWH+fvzEt9Cjew08rLq&#xA;7Dc7FIAf2m8W8F+k+5V4nc3NxdXElxcSNLPKxeSRzVmY9STihTwqjrKytVtZdU1SU22kWxCyyqAZ&#xA;JZCKiCAH7Ujfco3OBWIeZfMt1rl0hKC2sLYGOwsIyTHDGTXv9p26u53Y/QMVSfFXYq7FU38q+VtW&#xA;8zaxFpemRc5X3llP2Iowfikc9gPx6DfFX1X5N8m6R5T0hNO05KsaNdXTAepNJT7Te3gO2BKfYqxP&#xA;z556t/LloIYOMuqzqTBEdwg6eo/t4Dvirwq8vLq8upbq6laa4mYtJIxqSThQo4VRlhZQSLLd3031&#xA;XS7UBru6pWlfsxou3KR6UVfp6AnArE/M3mSfWriILGLbTrRTHYWSmojQ9WY0HOR+rt3PtQYqk2Ku&#xA;xV2KvoX8lfyv/RMEfmTWYaapOtbG3cbwRsKc2HaRx9w9yaBL1vFXYqxzzv5wtfLemGTaTUJwVs7c&#xA;9z3dv8lfx6Yq8BvLy5vbqW6upDLcTMXlkbqScKFHCqra2s11cJbwrykkNBUgAdySTsABuSegwKkn&#xA;mvXoLjhpOmvXS7VuTTdPrM9KGYj+UVKxg9F36scVY5irsVfXMFvcX9yx/mNZHPQD/PpirIbW1ito&#xA;hHGNu5PUnxOBLHPzA1nzBpukqNEs5Lie4LJJcRoZDAoH2uKg7muxOwxV4JP6/rOZ+XrEkyepXlyO&#xA;5LV3rkkLMVTLT9Ps1s5dX1eU22i2x4ySLT1J5KVEEAP2nbueijc4FYb5n8zXWu3asY1tbC3BSw0+&#xA;Mn04Yya0FftO3V3O7H6BiqTYq7FXYqmnlvy3q3mPVodL0uH1biXdmOyRoPtSSN+yq/574q+qfI3k&#xA;jSvKOjJY2ah7hwGvbwijzSAdT4KP2V7fOpwJZHirFfPPnm08t2npx8ZtUmX/AEe37KOnqSU/Z8B3&#xA;xV4TfX13f3ct5eStNczNykkbqT/TwGFChhVFWFj9ZMsksq21lbL6t5dv9iKOoFTTcsSaKo3Y7YFY&#xA;15o8zHVXSzs1a30W0Zvqds32mJ2aaamzSvTfsBsNsVSHFXYq7FXsX5J/ld9fli8z61DWxiblpts4&#xA;/vXU/wB6w/kU/Z8T7dQl79irsVSzzF5gsNB0uXULxvhTaKIH4pJD9lF9z+A3xV8969rt/repy6he&#xA;vWSQ0RB9lEH2UUeA/twoS/CrsVUvM2qDSLSTRrdv9yVytNUlHWKM7i1U/wAx6y/8B/MMCsLxV2Kp&#xA;/wCRvKt35o8y2mlQKTEzCS8kHSO3Uj1GJ+Ww9yMVfX0MMUKcIlCL1oMCUNrOqW2k6RfardGltp9v&#xA;LdTnpSOFDI34Lir82L78wfOl15gutf8A01fQapdStM9zDcyxupY14oysCqr0UDoMVZTpn/ORP5rW&#xA;arFd6pHrNsop6Gq28N2CB4yOvq/8Pir1b8o/zh8q+cdcn03zX5atbGeK1nvY7zTZLiKJhaxmWSNo&#xA;GkelUViCG6ilN8VS3zR5pvvMF6skqrb2NvVLDT4tooIia8VApVj+0x3Y4UJLirsVdiqY+X/L+q6/&#xA;qsOl6XCZrqY7DoqqPtO7fsqvc4q+p/IHkPTPJ+jraW9Jr2WjX16RRpX8B4Iv7I/jgSyjFWK+efPN&#xA;p5btPTj4zapMv+j2/ZR09SSn7PgO+KvCb6+u7+7lvLyVprmZuUkjdSf6eAwoUMKomwsZLyYorLFF&#xA;GpkuLiSojiiXdpHIrRR/YN8Csf8ANPmaO+VdM0zlFotu3JQw4vcSgUM8wHf+Ra/CPcklVjuKuxV2&#xA;KvQvyk/LSXzXqX16/QroNm49c7j15Bv6Knw/nPYe5xS+m4oooYkhiQRxRqEjjUAKqqKAADoAMCr8&#xA;VQ9/fWthZzXl3IIreBS8kjdAB/E9sVeAec/N135k1QztWOyhqtnbn9lf5m/ym7/dhQx/CrsVVrrU&#xA;E0HT01BqHU7kH9FRGh4AHi10w8FIpH4tv+zuFYC7vI7O7FnYlmZjUknckk4q1iq6ON5HWONS8jkK&#xA;iKKkk7AADFX1P+VHkFPKfl9frCg6xfBZb5+pTb4YQfBK7/5VfbAlm+KvJP8AnKbzOdC/JzVI424X&#xA;GsSRaZCa02mbnKPpgicYq+BsVdir0j8joidY8w3Ar/ouhXLEggf3s8Fv9P8Af4qyzCh2KuxVHaJo&#xA;mp63qcGmaZAZ7uc0RB0A7sx7KOpJxV9S/l1+XuneTtK9GMifUrgA315T7RHREr0Re3j1OBLLcVYr&#xA;55882nlu09OPjNqky/6Pb9lHT1JKfs+A74q8Jvr67v7uW8vJWmuZm5SSN1J/p4DChQwqr2NjcXtw&#xA;IIACxBZmYhURFFWd2Oyqo3JPTAqTeafMkEsP6G0hmGlxtyubg/C13KvR2HaNf91p/sjudlWMYq7F&#xA;XYqyj8vvIuoecNbWzhrFYw0e/u6bRxk9B25tSij+AxV9WaTpNhpGm2+m6fEILO2QJFGOwHcnuSdy&#xA;e+BKMxVpmVFLMQqqKsx2AA6knFXhv5jeeX128NjZORpNs3wkbes429Q/5P8AKPp+RQwvCrsVREAs&#xA;7a2l1PUa/ULYgemp4tPKwJSBD25Uqx/ZWp60BCsJ1bVLvVL+W+uyDLKR8KjiiKooqIv7KooCqPDF&#xA;UJirsVey/kL+Xv1m4HmzUo/9Ht2K6XEw2eUbNNv2Tov+V/q4Eve8Vdir5K/5zc8zepqnlzyxG+1v&#xA;DLqN0g6EzN6MNfdRFJ9+KvmDFXYq9V/JSELovnW6p/x52VqCaf7tvo5aeNf9GxVP8KHYqi9J0nUN&#xA;X1GDTtPhM95ctwiiXuepJJ2AA3JPQYq+ovy2/LfTvJ2nVPG41i5UfXbyn0+lHXcID/wR3PYAJZni&#xA;rHPP/n7y95E8tzeYNeeRbOJ1iSKFQ80sr/ZjjUlQWIBO5AoDir5zn/NP8rfNGqXF/H5kl0y5vJGk&#xA;FvrNrLHxqdl9a2+tR0A2FabYbQnVpoN1qMRm0We11uADl6ml3MN3t7pEzSD6VxVTh0PWJbr6qtlM&#xA;J/2kZGXiPFiwAUDuTsMVSTzP5ht4rd9D0mQSQVH6R1BCf9JdTX00O37hD0/nI5H9kBVieKuxV2Kp&#xA;p5Z8t6n5j1mDSdNj53Ex+JjXhGg+1I5HRV/z3xV9Y+T/AClpflbRIdK09aqvxTzsPjllI+J2+fYd&#xA;htgSneKuxV5N+aXnz1mk0DTJP3SnjqE6/tMP91KfAftfd44Qh5jhV2Kq9laG5lKl1hhjUy3Fw9eE&#xA;USbs7U8PAbk7Dc4FYx5m15dUukjtlaHS7QFLKBqcqE/FLJTb1JKVb6ANgMVSbFXYqyf8vPJV15u8&#xA;xQ6enJLKOkt/cD9iEHcA/wAz/ZX7+gxV9ZWVla2NnDZ2kYhtrdFihiXYKiigAwJV8VWu6opdjRVF&#xA;ST4DFX54f85Aeah5m/NvzBfxtytref6jbDsEtFEJp/rOrN9OKvPMVdir2L8oYfR/LjzVdEf716lp&#xA;dqrcR/uuK7mYcv8Aga/RiqZYUIjT9PvdRvYbGyhae7uGCQwoKszHFX1B+Wf5Z2Hk+w9WXjca3cKB&#xA;dXQFQgO/pRV6KO5/a+4AJZxirsVfKn/Obvmf4/LflaN+gl1S6jr41ggNPomxV8rYqvillhkWWJ2j&#xA;lQ1R0JVgR3BG4xV7v+WP5m+cb38s/Meh6hqc95BHeWENvJPI0kqQ3KXLzRCRiW4MbZKL0oW8cVUc&#xA;KHYq7FVewsLzUL2GysoWnurhxHDCgqzMegxV9Uflp+Xtn5O0b024zatdBWv7kdKjpGlf2Er9PX2A&#xA;SzHFXYqwD8zPPn6Jt20jTpP9yc6/vpV/3TGw8f527eA38MKHi+FXYqvhhlmmSGFDJLIwSNFFSzMa&#xA;AAe+Kpb5s1mGKE6Fp8geFGDajdIaiaZeiKw6xRHp/M3xdONArFcVdiqraWtxd3UNrbRmW4ndY4Yl&#xA;3ZnY0UD5nFX1h+W/ki38o+XYrOitqE9JdRnH7UpH2Qf5U+yv398CWV4q7FWJ/mN5kGheWtS1A7rY&#xA;Wc146/zekjMq/SVwq/NqaaWaV5pWLyyMXkc9SzGpJ+nAqzFXYq9v/LmERfkw8pFGu/MUoHYlbayi&#xA;ofcVuD8sVRdnZ3V7dRWlpE09zOwSGFByZmbYAAYUPpz8rfyws/KVgt3dqs2vXKD6xNsRCDuYYz7f&#xA;tN3+WBLPsVdirsVfnv8A85HeZ/8AEP5w6/Oj87awlGm2+9QFtF9N6HwMwdvpxV5nirsVesflXGg8&#xA;i65IB8bapYKzdyFt7ogf8McVTzCh2KtqrMwVQSxNABuSTir6S/J38sF8uWQ1nVYv9zt0nwRt/wAe&#xA;0Tfsf67fteHTxqEvTcVdirGPPfnODy3pv7ukmpXIItITuBTrI/8Akr+J+nFXgdzcT3NxJcXEjSzy&#xA;sXkkY1LMxqSThQp4Vdirtb1T9BWH1eI01m+j+Ju9tbSL+Ekyn/Yp/rCgVg2KuxV2KvdfyF/L30ox&#xA;5t1KIepICmkxsN1U7PP/ALL7K+1T3GBL2vFXYq7FUq8weW9N12xnsr6MSW91E9vcRMKq8bghlYbH&#xA;oexxV83+cP8AnDHTeMlx5c1ea0pVhBdKLiL5B19ORB7kPirxnzN/zj1+aWhc3/Rf6Utk/wB36a3r&#xA;1+UVFm/4TFXndzbXNrM8FzE8E8Zo8UilHU+BVqEYq968o2cz/lD5Rs7SIy3OoahqkyxIGZ3fnBAl&#xA;B4ngRQYq+kfyo/K238q2S6hqKLL5guF+NtmFujf7rQ/zfzMPkNuqr0TFXYq7FUo826/B5d8ratr0&#xA;1DHplpNdFW6MYoyyrt/MRTFX5j3VzPdXMtzcOZJ53aWaQ9WdzyZj8ycVUsVdir2H8szKv5ZXo4/u&#xA;pNaSjU6tHaHYH5PiqZ4UOxV7j+SP5XUEPmvWotyA+k2rjp3FwwP/AAn/AAXhgS9vxV2KqV1dQWlr&#xA;NdXDiOCBGllc9FRAWYn5AYq+MtZ/5yrt/MGqmXXPKkb2KEpaPaXbw3ccRNfjZ0likPenAYqmmlfm&#xA;N+VWs0W31yXRrhulvrFuyJXwFxbG4T6XC4bRTKItB1C6tjd6Z6WrWQ/4+9NljvIqeJMDPx/2VMVU&#xA;rtToFiNT1O3KzPUaZZTKR60g/wB2OrbmGOtT/MaL4kKvP7q6uLu5lurmRpbidzJLKxqzMxqScVUs&#xA;VdirM/yt8hy+bvMKxzKRpNnSXUJRUVWvwxA/zPT6BU4q+qooooYkhiQRxRqEjjUAKqqKAADoAMCV&#xA;+KuxV2KtEhQSTQDck4qkWp6sZqwwGkXRm7t/ZhVLACxAAqTsAMULtW/Lfy55htRH5gsLa+HGirPC&#xA;krID/K7fEp/1cUppofk3y5osFnDY2FvENPV0sSkSL6KyfbEdB8PL9rxwKneKuxV2KuxV4R/zl15z&#xA;GmflnJotu/7/AFq5itZCDQiKM+vJT2rGqt/rYq+IsVdirsVe1/lzC4/J5pzTg/mGdF8apZQE/wDE&#xA;xiqJwoen/k5+WB8w3i61q0X+4O1b93E1R9ZlU/Z/4xqfteJ28aKX0gAFAAFANgB0AwK3irsVec/8&#xA;5DeYxoH5O+ZboNxmurb6hAAaEteMIGp7qjs30Yq/PHFXYqjNI1jVdH1CHUdKu5bG+t2DQ3MDmN1I&#xA;NdiuKvpb8ztc1HWNes7jUD/pS6Zp5lSnEK81qlxIAB/lzHCrEcUOxVFaXpl7qmo2+nWMRmu7pxHD&#xA;GO7H9QHUnsMVfW3kfyhZeVPL0GlW1HlH7y8uKbyzMByb5dl9hgSyDFXYq7FXYqx3U9Te4cxRmkCn&#xA;t+1TucKEAAWIAFSdgBirINL0sW4EsorOeg/l/twJTHFXYq7FXYq7FUFqt49tbVQfG54hvD3xV8Y/&#xA;85c61cT+bdH0ghhb2dk1yCejSXMpViPGggXfCVeDYFdirsVe5eRYTF+TGnMGJE+vahIV7Ai1s0/4&#xA;1xVmn5Zfl5d+cNY4vyi0i1Ia/uRtUdokP87fgN/mUPqexsrSws4bOziWC1t0EcMSCiqqigAwJV8V&#xA;dirsVfNH/ObfmMweXPLvl2Nt766lvpwDvxtUEaA+zNcE/wCxxV8hYq7FXYq+lfPrK3mOqmo+pacK&#xA;jxGnwA/jhQx7FXYq+hfyK/L39GWA8zalFTUL1KWCN1it2/bp2aX/AIj8zgS9bxV2KuxV2KpQl+bn&#xA;V4kQ/uU5Ae54nfCqSgFiABUnYAYoZBpeli3AllFZz0H8v9uBKY4q7FXYq7FXYq7FVrojqVdQynqC&#xA;KjFWBfmD+XfkbzGIoda0uG+ZFYKXqJI1ahokqFZEr4BsKvE/Mv8AziV5XuuUnl7VbjTJTuILgC5h&#xA;+QP7uRfmWbGleUeZf+cbvzQ0XnJBZR6xbJv6unyc2p/xicRyk/6qnArza/07UNOuWtdQtZbO5T7c&#xA;E8bRSD5q4BxV9J/k95F1TzV+U3l2z01OKfpfUH1C6b7EKMsKh6VBPwx0AHU4q+pPLXl3TPLujW+k&#xA;6bHwt4Bux+07n7UjnuzH+nTFU0xV2KuxVZLKkUbSOaIoqTir4S/5yt80vrn5rTWwasOj2sNoiDoG&#xA;YGdvp/fAH5Yq8bxV2KuxV9M/mOqr5xvVUBVVLYKo2AAtothhVjWKHoH5Pfl8fNGu/W72Oui6cyvc&#xA;1HwyydUh969X9vmMUvp8AKAAKAbADoBgVvFXYq7FUr1q+9OP6vGfjcfGfBf7cKoDRUZtQQjogYn7&#xA;qfxxQmenaUtsfUkIebsR0A9q4EphirsVdirsVdirsVdiqE1G/S0i2oZW+wv8T7Yqxp3d3LueTMak&#xA;nChMtJ0z1iJ5h+6H2FP7R/pilOXtbZ14tEhA6bDbAqT635I8r63bfVtU0+G8g3pFPGkygnuBIGA+&#xA;jFUXoHl/SNA02PTdJto7Syi2jghVY0Wu+yqABvviqZYq7FXYq7FWPazqKysY1YCCLdmrQEjqfkMK&#xA;vzk84642vea9X1liSNQvJp0B7I7kov8AsVoMCpPirsVdir6a/MqFYPPWsQKSyxTCNSepCooH6sKE&#xA;p8v6FqGvaxa6TYJzubpwi+Cjqzt/kqtScVfXPlXy1p/lvQrbSLEfuoF+OQijSSHd5G92P3dMCU3x&#xA;V2KuxVQvLpLaBpW3PRV8T2GKsXkkeWRnc8nc1JwoZFpdl9Wgqw/eybv7eAwJRuKuxV2KuxV2KuxV&#xA;2KqF5dx2sJkfc9FXuTirGLieSeVpZDVm+4DwGFCK0zTjdScnFIEPxHxPgMVZGqhQFUUA2AGBLeKu&#xA;xV2KuxV2KuxVCap9ZNowtwSzGjU68e9MVefeeYNWl8na7b6TGX1WSwuY7OMbMZmiZVArT4q9K98K&#xA;H5/Xlle2Vw9te28ltcxmjwzI0bqfdWAIwJUMVdiqpBC800cKfblYItdhVjQYq+lfzKdn8/a8WNSL&#xA;2VfoVqD8BhQ9w/JX8vf8PaP+l9Qi46zqSA8GG8Nud1T2ZvtN9A7YEvS8VdirsVaJAFTsB1OKsa1O&#xA;+N1P8P8AdJsg/j9OFCI0Wx9WX6w4/dxn4R4t/ZilPsCuxV2KuxV2KuxV2Kqc88cETSyGir/nTFWM&#xA;3l5JdTGR9h0RewGFDdjZSXc3AbIN3bwH9cVZNFFHFGscY4oooBgSvxV2KuxV2KuxV2KuxVQvLuO1&#xA;hMj7noi+JxVi8sryytI/2nNThQtuvJGj+YrPhrNjbXlsa8I7qFJh8wHHw/MYpeZeaf8AnEXyDqQe&#xA;TTYptJnO4azlLR1/yop+e3sjDArx/wA0f84jeetN5Po97b6pEPsxShrSc/IPzi/5KDFXnifld+Ym&#xA;m+YbCyvPL19HPJcRrGwhaSJiHFaSpyjIHU/FsN8VfV3k7yH/AIk/M3XvMGow/wC4jT9TuPSRvszX&#xA;CSniPdUFGb6B44q9zxV2KuxV2KpRrd9xX6rGfib+8PgPD6cKpTbW73EyxJ1bqfAdzihlUMKQxLEg&#xA;oqigwJX4q7FXYq7FXYq7FVruqIXc8VUVJPhirG9Rv2u5dtoV+wv8ThQoW1tJcTLFGNz1PYDxOKsn&#xA;tbWO2hEUY2HU9yfHAlWxV2KuxV2KuxV2KuxVZLLHFG0khoiipOKsYvrx7qYu2yjZF8BhQq6ZYG6m&#xA;+L+5Tdz4+2KskAAAAFANgBgS3irRAIoRUeGKoaXTLGU1aIA+K/D+rFUQiIiBEAVR0AxVdirsVdiq&#xA;HvrtbW3Mh3Y7IvicVYu7s7s7mrMak+5woZBpFj9Xh9Rx+9k3PsvYYEphirsVdirsVdirsVaJAFT0&#xA;xVj+q6kbh/SiP7lTuf5j/TChAxxvJIsaDk7GgAxVkthYpaQ8RvI27t7+HywJRWKuxV2KuxV2KuxV&#xA;2KtEgAkmgHU4qx3VNQNzJwQ/uEO3ufHChC28Ek8yxRirN+A8TirKLa3jt4ViToOp7k9zgSq4q7FX&#xA;Yq7FXYq7FXYq0zKqlmNFAqSfAYqxjUb03VwWH92u0Y9vH6cKFbR7H15vVcVijP3t2GKsiwJdirsV&#xA;dirsVdirsVSXWNSrW2hOw2lYd/8AJH8cKpQASQAKk7AYoZFpenC2T1JBWdhv/kjwwJR+KuxV2Kux&#xA;V2KuxV2KuxVJdZ1HlW2hOw/vWHf/ACf64VSgAkgAVJ6DFDI9LsBaw8nH75/tew8MCUdirsVdirsV&#xA;dirsVdirsVSbW77/AI9Yz7yn9S4VSqCF5pViQVZjQYoZTbW6W8KxJ0UbnxPc4EquKuxV2KuxV2Ku&#xA;xVK9X1L0lMEJ/ekfGw/ZB/jhVIcUJ5pGm+mBcTD4z/dqew8T74pTbArsVdirsVdirsVdirsVS7Vt&#xA;R9BPRiP75xuf5R/XFWP4UJxoun9LqUf8Ygf+Jf0xSnOBXYq7FXYq7FXYq7FXYqhdQvFtbct/uxto&#xA;x7+P0YqxhmZmLMasTUk9ycKE+0Wx9KL13H7yQfCPBf7cUpngV2KuxV2KuxV2KoLVL/6rEAv969Qn&#xA;tTvirG2YsxZjUnck+OFCa6RpnMi4mX4B/dqe58flilPMCuxV2KuxV2KuxV2KuxVC6heraQcurtsi&#xA;++KsZkkeR2dzyZjUk4UIvTLA3U1WH7lN3Pj7YqyQAAAAUA2AGBLeKuxV2KuxV2KuxV2KtOyopZjR&#xA;VBJPsMVYvf3jXVwZDsg2RfAYUKulWJuZ+TD9ym7+58MVZJgS7FXYq7FXYq7FXYqsk9Hb1OPtyp/H&#xA;FVEfo6op6Ne1OOKonFXYq7FXYq7FXYq7FXYq7FVG4+qUH1j0+Nfh9SlK+1cVUP8AcP8A8u//AAmK&#xA;ouP0+A9OnDtxpT8MVXYq7FXYq7FXYq7FXYq7FWm48TypxpvXpTFUH/uH/wCXf/hMVRUXpcB6XH0/&#xA;2eNKfRTFV+KuxV2KuxV2Kv8A/9k=</xapGImg:image>
    </rdf:li>
   </rdf:Alt>
  </xap:Thumbnails>
 </rdf:Description>

 <rdf:Description rdf:about='uuid:da266544-dbd8-11db-9485-000d932a3d9a'
  xmlns:xapMM='http://ns.adobe.com/xap/1.0/mm/'>
  <xapMM:DocumentID>uuid:6fa6c250-cc3c-11db-a073-000d932a3d9a</xapMM:DocumentID>
 </rdf:Description>

 <rdf:Description rdf:about='uuid:da266544-dbd8-11db-9485-000d932a3d9a'
  xmlns:dc='http://purl.org/dc/elements/1.1/'>
  <dc:format>image/svg+xml</dc:format>
 </rdf:Description>

</rdf:RDF>
</x:xmpmeta>
                                                                                                                                                                                                                                                                                                                                                                                                                                                                                                                                                                                                                                                                                                                                                                                                                                                                                                                                                                                                                                                                                                                                                                                                                                                                                                                                                                                                                                                                                                                                                                                                                                                                                                                                                                                                                                                                                                                                                                                                                                                                                                                                <?xpacket end='w'?>
			</metadata>
		<g id="Layer_3">
			<path class="st2" d="M128,80.503c0,6.627-5.304,12-11.846,12H11.846C5.304,92.503,0,87.13,0,80.503V12.17
				c0-6.627,5.304-12,11.846-12h104.309c6.542,0,11.846,5.373,11.846,12V80.503z"/>
			<g>
				<path class="st3" d="M40.325,49.667c-0.651-0.452-1.591-0.318-2.091,0.297l-3.654,4.501c-0.5,0.615-0.318,1.387,0.403,1.714
					l2.632,1.196c0.721,0.327,0.886,1.085,0.368,1.684L10.17,91.12c-0.519,0.599-0.296,1.116,0.495,1.149l3.992,0.173
					c0.791,0.033,1.861-0.43,2.378-1.03l26.206-30.439c0.517-0.601,1.572-0.949,2.344-0.774l6.266,1.413
					c0.772,0.175,1.608-0.282,1.857-1.015c0.249-0.731-0.08-1.7-0.731-2.152L40.325,49.667z"/>
			</g>
			<g>
				<path class="st3" d="M78.888,57.355c-0.594-0.524-1.469-0.436-1.945,0.197l-6.104,8.104c-0.477,0.633-0.251,1.355,0.5,1.605
					l0.85,0.283c0.751,0.25,0.956,0.957,0.455,1.57L54.438,91.388c-0.501,0.613-0.263,1.115,0.529,1.115h4.741
					c0.792,0,1.83-0.518,2.306-1.15l15.45-20.53c0.477-0.633,1.492-0.983,2.258-0.778l11.514,3.076
					c0.766,0.205,1.292-0.269,1.169-1.051l-0.279-1.791c-0.123-0.782-0.708-1.852-1.302-2.376L78.888,57.355z"/>
			</g>
			<g>
				<path class="st3" d="M6.167,38.541c-0.653-0.449-1.561-0.287-2.019,0.359l-1.566,2.211c-0.458,0.646-0.957,1.803-1.11,2.569
					c-0.153,0.767,0.331,1.617,1.074,1.89l4.422,1.622c0.744,0.272,0.868,0.927,0.277,1.454l-6.171,5.501
					C0.484,54.672,0,55.752,0,56.544v5.239c0,0.792,0.458,0.982,1.018,0.422l11.576-11.576c0.56-0.56,1.663-0.958,2.452-0.883
					l1.369,0.129c0.789,0.074,1.322-0.503,1.186-1.284l-0.186-1.067c-0.136-0.78-0.781-1.786-1.434-2.234L6.167,38.541z"/>
			</g>
			<g>
				<path class="st3" d="M0,22.632c0-0.792,0.496-1.857,1.102-2.367L23.887,1.097c0.606-0.51,1.541-0.927,2.076-0.927
					c0.536,0,0.502,0.444-0.075,0.987L1.049,24.529C0.472,25.072,0,24.868,0,24.076V22.632z"/>
			</g>
			<g>
				<path class="st3" d="M100.537,92.503c-0.792,0-1.075-0.535-0.629-1.189l26.329-38.603c0.446-0.654,0.812-0.541,0.812,0.251
					v4.522c0,0.792-0.352,1.984-0.781,2.65l-20.122,31.158c-0.43,0.666-1.43,1.21-2.222,1.21H100.537z"/>
			</g>
			<g>
				<path class="st0" d="M86.597,0.17c0.792,0,1,0.476,0.462,1.057L55.753,35.048c-0.538,0.581-1.609,0.912-2.381,0.734
					l-8.141-1.869c-0.772-0.177-0.947-0.782-0.389-1.344L75.994,1.192c0.558-0.562,1.663-1.022,2.455-1.022H86.597z"/>
			</g>
			<g>
				<path class="st0" d="M44.044,0.145c0.792,0.014,0.977,0.478,0.41,1.032L20.753,24.323c-0.567,0.554-1.664,0.87-2.438,0.704
					l-7.488-1.609c-0.774-0.167-0.932-0.742-0.35-1.28L33.424,0.952C34.006,0.415,35.13-0.013,35.922,0L44.044,0.145z"/>
			</g>
			<g>
				<path class="st0" d="M121.392,1.635c0.731,0.302,1.782,1.014,2.333,1.583l1.398,1.441c0.551,0.569,0.603,1.545,0.115,2.169
					l-31.291,40.05c-0.487,0.624-1.511,0.961-2.274,0.749l-9.174-2.549c-0.764-0.212-0.971-0.882-0.462-1.489L117.4,1.476
					c0.509-0.607,1.525-0.856,2.257-0.554L121.392,1.635z"/>
			</g>
			<g>
				<path class="st1" d="M103.206,0.179c0.792,0,1.022,0.496,0.512,1.101L55.092,58.863c-0.511,0.605-0.917,0.453-0.903-0.339
					l0.354-19.771c0.014-0.792,0.467-1.914,1.007-2.494L88.169,1.224c0.54-0.58,1.63-1.053,2.422-1.053L103.206,0.179z"/>
			</g>
			<g>
				<path class="st1" d="M63.652,0.301c0.792,0.006,0.99,0.478,0.441,1.048l-45.246,46.95c-0.549,0.57-0.951,0.391-0.892-0.399
					l1.473-19.731c0.059-0.79,0.569-1.891,1.132-2.447l24.87-24.54c0.563-0.556,1.673-1.006,2.465-1L63.652,0.301z"/>
			</g>
			<g>
				<path class="st1" d="M127.64,10.776c0.198,0.767,0.369,2.042,0.381,2.834l0.09,6.359c0.012,0.792-0.348,1.973-0.797,2.625
					L93.444,71.674c-0.449,0.652-0.801,0.538-0.78-0.254l0.555-21.205c0.021-0.792,0.437-1.95,0.924-2.574l31.45-40.22
					c0.487-0.624,1.049-0.507,1.247,0.26L127.64,10.776z"/>
			</g>
			<g>
				<path d="M53.208,59.534c-0.03,0.792-0.675,1.253-1.434,1.026l-13.259-3.968c-0.759-0.228-1.208-1.039-1-1.803l5.226-19.102
					c0.209-0.764,1.011-1.244,1.783-1.067l8.141,1.869c0.772,0.177,1.379,0.97,1.349,1.761L53.208,59.534z"/>
			</g>
			<g>
				<path d="M17.033,47.635c-0.07,0.789-0.746,1.245-1.503,1.012L4.481,45.258c-0.757-0.232-1.211-1.049-1.009-1.815l4.786-18.141
					c0.202-0.766,1-1.256,1.775-1.09l7.487,1.61c0.774,0.167,1.351,0.948,1.281,1.737L17.033,47.635z"/>
			</g>
			<g>
				<path d="M91.861,70.62c-0.02,0.791-0.658,1.26-1.42,1.041l-13.844-3.979c-0.762-0.219-1.234-1.027-1.051-1.799l4.561-19.119
					c0.184-0.771,0.957-1.228,1.721-1.016l9.176,2.549c0.764,0.212,1.371,1.033,1.352,1.825L91.861,70.62z"/>
			</g>
		</g>
	</svg>
