<?xml version="1.0" encoding="utf-8"?>
<!-- Generator: Adobe Illustrator 13.0.2, SVG Export Plug-In . SVG Version: 6.00 Build 14948)  -->
<!DOCTYPE svg PUBLIC "-//W3C//DTD SVG 1.1//EN" "http://www.w3.org/Graphics/SVG/1.1/DTD/svg11.dtd">
<svg version="1.1" id="Layer_5" xmlns="http://www.w3.org/2000/svg" xmlns:xlink="http://www.w3.org/1999/xlink" x="0px" y="0px"
	 width="128px" height="128px" viewBox="0 0 128 128" enable-background="new 0 0 128 128" xml:space="preserve">
<path fill="#FFFFFF" d="M128,117.2c0,5.965-4.835,10.8-10.8,10.8H10.8C4.835,128,0,123.165,0,117.2V10.8C0,4.835,4.835,0,10.8,0
	h106.4c5.965,0,10.8,4.835,10.8,10.8V117.2z"/>
<path fill="#60BB46" d="M89.866,127.872h27.293c5.965,0,10.8-4.836,10.8-10.801v-26.02L89.866,127.872z"/>
<g>
	<path fill="#414958" d="M62.088,98.565v2.438l-6.874,14.235h-4.13l6.874-13.415v-0.051h-7.644v-3.207H62.088z"/>
	<path fill="#414958" d="M71.273,115.238v-3.976h-7.387v-2.539l6.285-10.158h4.796v9.773h1.976v2.924h-1.976v3.976H71.273z
		 M71.273,108.339v-3.694c0-1,0.052-2.026,0.103-3.104h-0.077c-0.538,1.077-1,2.052-1.564,3.104l-2.206,3.643l-0.025,0.052H71.273z"
		/>
</g>
<path fill="none" stroke="#EC6711" stroke-width="9" stroke-linecap="round" d="M41.514,94.789
	c-12.307-7.341-20.551-20.788-20.551-36.16c0-23.237,18.837-42.073,42.074-42.073c23.236,0,42.072,18.836,42.072,42.073
	c0,14.954-7.8,28.083-19.554,35.544"/>
<path fill="none" stroke="#EC6711" stroke-width="7" stroke-linecap="round" d="M83.225,95.551"/>
<path fill="none" stroke="#1A1F2C" stroke-width="9" stroke-linecap="round" d="M82.446,95.784
	c13.369-7.046,22.483-21.08,22.483-37.243c0-15.777-8.683-29.525-21.531-36.727L63.036,57.48"/>
</svg>
