<?xml version="1.0" encoding="utf-8"?>
<!-- Generator: Adobe Illustrator 13.0.2, SVG Export Plug-In . SVG Version: 6.00 Build 14948)  -->
<!DOCTYPE svg PUBLIC "-//W3C//DTD SVG 1.1//EN" "http://www.w3.org/Graphics/SVG/1.1/DTD/svg11.dtd">
<svg version="1.1" id="Layer_5" xmlns="http://www.w3.org/2000/svg" xmlns:xlink="http://www.w3.org/1999/xlink" x="0px" y="0px"
	 width="128px" height="128px" viewBox="0 0 128 128" enable-background="new 0 0 128 128" xml:space="preserve">
<path fill="#FFFFFF" d="M128,117.2c0,5.965-4.835,10.8-10.8,10.8H10.8C4.835,128,0,123.165,0,117.2V10.8C0,4.835,4.835,0,10.8,0
	h106.4c5.965,0,10.8,4.835,10.8,10.8V117.2z"/>
<path fill="#60BB46" d="M89.881,127.971h27.293c5.966,0,10.8-4.836,10.8-10.801V91.149L89.881,127.971z"/>
<rect x="9.254" y="47.726" fill="#EAF20E" stroke="#6C7887" stroke-width="2.0582" width="31.948" height="31.948"/>
<rect x="47.112" y="47.726" fill="#929DA8" stroke="#6C7887" stroke-width="2.0582" width="31.948" height="31.948"/>
<rect x="85.938" y="47.726" fill="#929DA8" stroke="#6C7887" stroke-width="2.0582" width="31.948" height="31.948"/>
<g>
	<path fill="#463C3C" d="M23.049,58.352H18v-3.551h14.37v3.551h-5.104v15.146h-4.217V58.352z"/>
</g>
<g>
	<path fill="#463C3C" d="M61.062,68.699l-1.304,4.799h-4.383l5.714-18.697h5.52l5.826,18.697h-4.55l-1.442-4.799H61.062z
		 M65.806,65.537l-1.165-3.967c-0.305-1.11-0.638-2.524-0.916-3.606h-0.083c-0.25,1.11-0.555,2.524-0.832,3.606l-1.138,3.967H65.806
		z"/>
</g>
<g>
	<path fill="#463C3C" d="M95.851,55.078c1.109-0.222,3.328-0.416,5.465-0.416c2.58,0,4.161,0.25,5.52,1.054
		c1.305,0.694,2.22,1.97,2.22,3.689c0,1.637-0.971,3.163-3.052,3.967v0.056c2.137,0.555,3.718,2.191,3.718,4.605
		c0,1.72-0.776,3.051-1.942,3.967c-1.359,1.082-3.633,1.692-7.351,1.692c-2.081,0-3.634-0.139-4.577-0.277V55.078z M100.039,62.208
		h1.388c2.246,0,3.412-0.916,3.412-2.302c0-1.415-1.082-2.164-2.996-2.164c-0.943,0-1.471,0.056-1.804,0.139V62.208z
		 M100.039,70.502c0.417,0.084,0.915,0.084,1.637,0.084c1.914,0,3.606-0.75,3.606-2.719c0-1.887-1.692-2.636-3.801-2.636h-1.442
		V70.502z"/>
</g>
</svg>
