<?xml version="1.0" encoding="utf-8"?>
<!-- Generator: Adobe Illustrator 13.0.2, SVG Export Plug-In . SVG Version: 6.00 Build 14948)  -->
<!DOCTYPE svg PUBLIC "-//W3C//DTD SVG 1.1//EN" "http://www.w3.org/Graphics/SVG/1.1/DTD/svg11.dtd">
<svg version="1.1" id="Layer_4" xmlns="http://www.w3.org/2000/svg" xmlns:xlink="http://www.w3.org/1999/xlink" x="0px" y="0px"
	 width="128px" height="128px" viewBox="0 0 128 128" enable-background="new 0 0 128 128" xml:space="preserve">
<polygon fill="#F5F5F5" points="128,116.273 128,0 0.102,0 0.102,128 114.985,128 "/>
<rect x="42.351" y="47.166" fill="#CDE4F7" width="9.872" height="80.834"/>
<rect x="15.477" y="86.472" fill="#CDE4F7" width="9.872" height="41.528"/>
<circle fill="#CDE4F7" cx="20.134" cy="77.053" r="11.975"/>
<circle fill="#F5F5F5" cx="20.151" cy="77.323" r="5.76"/>
<rect x="103.696" y="105.302" fill="#F7EAD0" width="9.871" height="22.698"/>
<rect x="79.824" y="110.627" fill="#F7EAD0" width="9.873" height="17.373"/>
<circle fill="#F7EAD0" cx="84.482" cy="101.208" r="11.975"/>
<circle fill="#F5F5F5" cx="84.613" cy="101.448" r="5.759"/>
<rect x="66.849" y="58.971" fill="#FFBF3B" width="61.151" height="25.855"/>
<rect y="0.302" fill="#2EA1FF" width="128" height="26.161"/>
<line fill="none" stroke="#565758" stroke-width="7.5923" x1="64.106" y1="0" x2="64.106" y2="128"/>
<rect x="60.417" opacity="0.49" fill="#2EA1FF" width="7.409" height="26.412"/>
<path fill="#60BB46" d="M89.863,128h25.951h1.342c5.965,0,10.8-4.836,10.8-10.801V91.18L89.863,128z"/>
</svg>
