<?xml version="1.0" encoding="utf-8"?>
<!-- Generator: Adobe Illustrator 13.0.2, SVG Export Plug-In . SVG Version: 6.00 Build 14948)  -->
<!DOCTYPE svg PUBLIC "-//W3C//DTD SVG 1.1//EN" "http://www.w3.org/Graphics/SVG/1.1/DTD/svg11.dtd">
<svg version="1.1" id="Layer_3" xmlns="http://www.w3.org/2000/svg" xmlns:xlink="http://www.w3.org/1999/xlink" x="0px" y="0px"
	 width="128px" height="128px" viewBox="0 0 128 128" enable-background="new 0 0 128 128" xml:space="preserve">
<path fill="#FFFFFF" d="M128,117.2c0,5.965-4.835,10.8-10.8,10.8H10.8C4.835,128,0,123.165,0,117.2V10.8C0,4.835,4.835,0,10.8,0
	h106.4c5.965,0,10.8,4.835,10.8,10.8V117.2z"/>
<rect x="54.633" y="7.285" fill="#231F20" width="7.87" height="112.173"/>
<rect x="64.814" y="7.285" fill="#231F20" width="7.869" height="112.173"/>
<polygon fill="#929DA8" stroke="#414958" stroke-width="1.0629" points="95.981,64.973 75.435,54.699 95.981,42.885 "/>
<rect x="54.633" y="39.223" fill="#FFFFFF" width="18.05" height="2.438"/>
<path fill="#60BB46" d="M89.887,127.973h27.293c5.965,0,10.8-4.836,10.8-10.801v-26.02L89.887,127.973z"/>
</svg>
