<?xml version="1.0" encoding="utf-8"?>
<!-- Generator: Adobe Illustrator 13.0.2, SVG Export Plug-In . SVG Version: 6.00 Build 14948)  -->
<!DOCTYPE svg PUBLIC "-//W3C//DTD SVG 1.1//EN" "http://www.w3.org/Graphics/SVG/1.1/DTD/svg11.dtd">
<svg version="1.1" id="Layer_4" xmlns="http://www.w3.org/2000/svg" xmlns:xlink="http://www.w3.org/1999/xlink" x="0px" y="0px"
	 width="128.011px" height="128px" viewBox="0 0 128.011 128" enable-background="new 0 0 128.011 128" xml:space="preserve">
<path fill="#FFFFFF" d="M128,117.2c0,5.965-4.835,10.8-10.8,10.8H10.8C4.835,128,0,123.165,0,117.2V10.8C0,4.835,4.835,0,10.8,0
	h106.4c5.965,0,10.8,4.835,10.8,10.8V117.2z"/>
<path fill="#67748C" stroke="#231F20" stroke-width="0.9826" d="M39.051,31.22c0,1.988-1.556,3.6-3.476,3.6H9.482
	c-1.92,0-3.476-1.611-3.476-3.6v-3.717c0-1.988,1.556-3.6,3.476-3.6h26.093c1.92,0,3.476,1.611,3.476,3.6V31.22z"/>
<path fill="#67748C" stroke="#231F20" stroke-width="0.9826" d="M39.051,48.923c0,1.988-1.556,3.6-3.476,3.6H9.482
	c-1.92,0-3.476-1.611-3.476-3.6v-3.717c0-1.988,1.556-3.6,3.476-3.6h26.093c1.92,0,3.476,1.611,3.476,3.6V48.923z"/>
<path fill="#67748C" stroke="#231F20" stroke-width="0.9826" d="M39.051,66.903c0,1.988-1.556,3.6-3.476,3.6H9.482
	c-1.92,0-3.476-1.611-3.476-3.6v-3.717c0-1.988,1.556-3.6,3.476-3.6h26.093c1.92,0,3.476,1.611,3.476,3.6V66.903z"/>
<path fill="#F46E00" stroke="#231F20" d="M39.051,84.682c0,1.988-1.556,3.6-3.476,3.6H9.482c-1.92,0-3.476-1.611-3.476-3.6v-3.717
	c0-1.988,1.556-3.6,3.476-3.6h26.093c1.92,0,3.476,1.611,3.476,3.6V84.682z"/>
<path fill="#FFFFFF" stroke="#231F20" stroke-width="0.9826" d="M79.693,31.22c0,1.988-1.557,3.6-3.477,3.6H50.125
	c-1.92,0-3.476-1.611-3.476-3.6v-3.717c0-1.988,1.556-3.6,3.476-3.6h26.092c1.92,0,3.477,1.611,3.477,3.6V31.22z"/>
<path fill="#FFFFFF" stroke="#231F20" stroke-width="0.9826" d="M79.693,48.923c0,1.988-1.557,3.6-3.477,3.6H50.125
	c-1.92,0-3.476-1.611-3.476-3.6v-3.717c0-1.988,1.556-3.6,3.476-3.6h26.092c1.92,0,3.477,1.611,3.477,3.6V48.923z"/>
<path fill="#F46E00" stroke="#231F20" d="M79.693,66.903c0,1.988-1.555,3.6-3.475,3.6H50.125c-1.92,0-3.476-1.611-3.476-3.6v-3.717
	c0-1.988,1.556-3.6,3.476-3.6h26.093c1.92,0,3.475,1.611,3.475,3.6V66.903z"/>
<path fill="#67748C" stroke="#231F20" stroke-width="0.9826" d="M79.693,84.682c0,1.988-1.557,3.6-3.477,3.6H50.125
	c-1.92,0-3.476-1.611-3.476-3.6v-3.717c0-1.988,1.556-3.6,3.476-3.6h26.092c1.92,0,3.477,1.611,3.477,3.6V84.682z"/>
<path fill="#FFFFFF" stroke="#231F20" stroke-width="0.9826" d="M120.477,31.22c0,1.988-1.557,3.6-3.477,3.6H90.906
	c-1.92,0-3.475-1.611-3.475-3.6v-3.717c0-1.988,1.555-3.6,3.475-3.6H117c1.92,0,3.477,1.611,3.477,3.6V31.22z"/>
<path fill="#F46E00" stroke="#231F20" d="M120.477,48.923c0,1.988-1.557,3.6-3.477,3.6H90.906c-1.92,0-3.475-1.611-3.475-3.6v-3.717
	c0-1.988,1.555-3.6,3.475-3.6H117c1.92,0,3.477,1.611,3.477,3.6V48.923z"/>
<path fill="#FFFFFF" stroke="#231F20" stroke-width="0.9826" d="M120.477,66.903c0,1.988-1.557,3.6-3.477,3.6H90.908
	c-1.92,0-3.477-1.611-3.477-3.6v-3.717c0-1.988,1.557-3.6,3.477-3.6H117c1.92,0,3.477,1.611,3.477,3.6V66.903z"/>
<path fill="#67748C" stroke="#231F20" stroke-width="0.9826" d="M120.477,84.682c0,1.988-1.557,3.6-3.477,3.6H90.906
	c-1.92,0-3.475-1.611-3.475-3.6v-3.717c0-1.988,1.555-3.6,3.475-3.6H117c1.92,0,3.477,1.611,3.477,3.6V84.682z"/>
<path fill="#60BB46" d="M89.918,127.872h27.293c5.965,0,10.8-4.836,10.8-10.801v-26.02L89.918,127.872z"/>
</svg>
