<?xml version="1.0" encoding="utf-8"?>
<!-- Generator: Adobe Illustrator 13.0.2, SVG Export Plug-In . SVG Version: 6.00 Build 14948)  -->
<!DOCTYPE svg PUBLIC "-//W3C//DTD SVG 1.1//EN" "http://www.w3.org/Graphics/SVG/1.1/DTD/svg11.dtd">
<svg version="1.1" id="Layer_4" xmlns="http://www.w3.org/2000/svg" xmlns:xlink="http://www.w3.org/1999/xlink" x="0px" y="0px"
	 width="128px" height="128px" viewBox="0 0 128 128" enable-background="new 0 0 128 128" xml:space="preserve">
<path fill="#FFFFFF" d="M128,117.2c0,5.965-4.835,10.8-10.8,10.8H10.8C4.835,128,0,123.165,0,117.2V10.8C0,4.835,4.835,0,10.8,0
	h106.4c5.965,0,10.8,4.835,10.8,10.8V117.2z"/>
<rect x="6.667" y="39.649" fill="#C7CED3" stroke="#36383C" stroke-width="0.9068" width="114.667" height="47.95"/>
<g>
	<path fill="#414958" d="M62.297,52.687v3.623l-10.22,21.163h-6.139l10.22-19.943v-0.076H44.794v-4.767H62.297z"/>
	<path fill="#414958" d="M75.95,77.473v-5.91H64.968v-3.775l9.342-15.1h7.131v14.528h2.936v4.348h-2.936v5.91H75.95z M75.95,67.215
		v-5.491c0-1.487,0.076-3.012,0.152-4.614h-0.114c-0.801,1.602-1.487,3.05-2.326,4.614l-3.279,5.415l-0.038,0.076H75.95z"/>
</g>
<path fill="#60BB46" d="M89.884,127.949h27.293c5.965,0,10.8-4.836,10.8-10.801v-26.02L89.884,127.949z"/>
</svg>
