<?xml version="1.0" encoding="utf-8"?>
<!-- Generator: Adobe Illustrator 13.0.2, SVG Export Plug-In . SVG Version: 6.00 Build 14948)  -->
<!DOCTYPE svg PUBLIC "-//W3C//DTD SVG 1.1//EN" "http://www.w3.org/Graphics/SVG/1.1/DTD/svg11.dtd">
<svg version="1.1" id="Layer_3" xmlns="http://www.w3.org/2000/svg" xmlns:xlink="http://www.w3.org/1999/xlink" x="0px" y="0px"
	 width="128px" height="128.013px" viewBox="0 0 128 128.013" enable-background="new 0 0 128 128.013" xml:space="preserve">
<path fill="#FFFFFF" d="M128,117.2c0,5.965-4.835,10.8-10.8,10.8H10.8C4.835,128,0,123.165,0,117.2V10.8C0,4.835,4.835,0,10.8,0
	h106.4c5.965,0,10.8,4.835,10.8,10.8V117.2z"/>
<path fill="#60BB46" d="M89.903,128.013h27.293c5.966,0,10.8-4.836,10.8-10.801V91.191L89.903,128.013z"/>
<rect x="59.28" y="9" fill="#1A1F2C" width="9.054" height="88.058"/>
<polygon fill="#929DA8" stroke="#414958" points="91.935,64.215 72.604,54.55 91.935,43.435 "/>
<g>
	<path fill="#414958" d="M62.35,102.05v2.812l-7.933,16.429h-4.766l7.934-15.481v-0.06h-8.821v-3.7H62.35z"/>
	<path fill="#414958" d="M72.946,121.291v-4.588H64.42v-2.931l7.252-11.723h5.535v11.278h2.279v3.375h-2.279v4.588H72.946z
		 M72.946,113.328v-4.263c0-1.154,0.059-2.339,0.117-3.582h-0.088c-0.621,1.243-1.154,2.368-1.807,3.582l-2.545,4.203l-0.029,0.06
		H72.946z"/>
</g>
</svg>
