<?xml version="1.0" encoding="utf-8"?>
<!-- Generator: Adobe Illustrator 13.0.2, SVG Export Plug-In . SVG Version: 6.00 Build 14948)  -->
<!DOCTYPE svg PUBLIC "-//W3C//DTD SVG 1.1//EN" "http://www.w3.org/Graphics/SVG/1.1/DTD/svg11.dtd">
<svg version="1.1" id="Layer_3" xmlns="http://www.w3.org/2000/svg" xmlns:xlink="http://www.w3.org/1999/xlink" x="0px" y="0px"
	 width="127.7px" height="127.145px" viewBox="0 0 127.7 127.145" enable-background="new 0 0 127.7 127.145" xml:space="preserve">
<path fill="#FFFFFF" d="M127.638,115.621H35.287c-14.206,0-25.721-10.969-25.721-24.498V35.915
	c0-13.529,11.516-24.499,25.721-24.499h92.351"/>
<rect x="15.635" y="17.115" opacity="0.25" fill="#A0CDEF" width="112.065" height="87.508"/>
<path fill="none" stroke="#B4C69B" stroke-width="18" d="M127.7,113.205H34.858C20.577,113.205,9,102.236,9,88.706V33.499
	C9,19.969,20.577,9,34.858,9H127.7"/>
<path fill="#565758" d="M63.7,115.541c0,6.406-3.197,11.604-9.61,11.604H38.415c-6.41,0-9.606-5.197-9.606-11.604l0,0
	c0-6.413,3.196-11.608,9.606-11.608H54.09C60.503,103.933,63.7,109.128,63.7,115.541L63.7,115.541z"/>
<path fill="#565758" d="M62.146,9.23c0,5.015-2.197,9.083-8.61,9.083H37.86c-6.41,0-8.606-4.068-8.606-9.083l0,0
	c0-5.02,2.196-9.087,8.606-9.087h15.675C59.948,0.144,62.146,4.21,62.146,9.23L62.146,9.23z"/>
<path fill="#565758" d="M123.896,115.502c0,6.406-3.197,11.604-9.61,11.604H98.61c-6.41,0-9.605-5.197-9.605-11.604l0,0
	c0-6.413,3.195-11.608,9.605-11.608h15.675C120.698,103.894,123.896,109.089,123.896,115.502L123.896,115.502z"/>
</svg>
