<?xml version="1.0" encoding="utf-8"?>
<!DOCTYPE svg PUBLIC "-//W3C//DTD SVG 1.0//EN" "http://www.w3.org/TR/2001/REC-SVG-20010904/DTD/svg10.dtd">
<svg version="1.0" xmlns="http://www.w3.org/2000/svg" xmlns:xlink="http://www.w3.org/1999/xlink" x="0px" y="0px"
	 width="127.723px" height="128.344px" viewBox="0 0 127.723 128.344" enable-background="new 0 0 127.723 128.344"
	 xml:space="preserve">
<g id="Calque_1_-_copie">
	<path fill="#F7F7F7" stroke="#F7F7F7" stroke-width="8" d="M123.723,113.036c0,6.248-5.027,11.308-11.225,11.308H15.224
		C9.025,124.344,4,119.284,4,113.036V15.509C4,9.264,9.025,4.203,15.224,4.203h97.274c6.196,0,11.225,5.061,11.225,11.306V113.036z"
		/>
	<path fill="none" stroke="#000000" d="M98.92,38.052"/>
</g>
<g id="Calque_2">
	<circle opacity="0.25" fill="#FF0D0D" stroke="#FF0D0D" stroke-width="2" cx="44.797" cy="33.527" r="26.442"/>
	<circle opacity="0.2" fill="none" stroke="#FF0D0D" stroke-width="2" cx="44.797" cy="33.527" r="26.442"/>
	<circle opacity="0.3" fill="none" stroke="#001E9F" stroke-width="2" cx="38.837" cy="84.203" r="34.151"/>
	<circle opacity="0.25" fill="#001E9F" stroke="#001E9F" stroke-width="2" cx="38.837" cy="84.203" r="34.151"/>
	<circle opacity="0.25" fill="#00CC00" stroke="#05C677" stroke-width="2" cx="91.7" cy="65.988" r="32.939"/>
	<circle opacity="0.2" fill="none" stroke="#05C677" stroke-width="2" cx="91.7" cy="65.988" r="32.939"/>
	<path fill="#E6E6E6" d="M101.68,65.988c0,5.514-4.473,9.98-9.98,9.98c-5.512,0-9.979-4.467-9.979-9.98
		c0-5.51,4.467-9.977,9.979-9.977C97.207,56.011,101.68,60.478,101.68,65.988z"/>
	<path fill="#E6E6E6" d="M48.816,84.201c0,5.516-4.468,9.982-9.98,9.982c-5.51,0-9.978-4.467-9.978-9.982
		c0-5.51,4.468-9.979,9.978-9.979C44.348,74.223,48.816,78.691,48.816,84.201z"/>
	<circle fill="#E6E6E6" cx="44.797" cy="33.528" r="9.979"/>
	<g>
		<path fill="#0F0F0F" d="M34.215,78.838v-1.686h9.245v1.365c-0.908,0.969-1.811,2.254-2.703,3.857
			c-0.895,1.605-1.585,3.258-2.071,4.951c-0.351,1.195-0.573,2.504-0.671,3.928h-1.803c0.019-1.123,0.239-2.482,0.661-4.074
			c0.423-1.59,1.029-3.129,1.818-4.607c0.789-1.477,1.629-2.721,2.519-3.734H34.215z"/>
	</g>
	<g>
		<path fill="#0F0F0F" d="M49.221,35.663l1.89,0.476c-0.396,1.555-1.109,2.74-2.138,3.555c-1.03,0.815-2.288,1.222-3.776,1.222
			c-1.541,0-2.793-0.312-3.757-0.938c-0.966-0.626-1.699-1.537-2.204-2.727c-0.502-1.188-0.753-2.465-0.753-3.828
			c0-1.488,0.284-2.784,0.852-3.894c0.569-1.106,1.376-1.948,2.427-2.521c1.049-0.575,2.204-0.866,3.463-0.866
			c1.43,0,2.633,0.364,3.606,1.093c0.975,0.727,1.654,1.75,2.038,3.069l-1.861,0.439c-0.332-1.04-0.812-1.798-1.442-2.271
			s-1.423-0.713-2.379-0.713c-1.098,0-2.016,0.265-2.753,0.792c-0.736,0.523-1.255,1.233-1.554,2.12
			c-0.299,0.886-0.448,1.799-0.448,2.741c0,1.215,0.177,2.278,0.53,3.183c0.355,0.906,0.906,1.582,1.652,2.03
			c0.748,0.45,1.556,0.673,2.426,0.673c1.06,0,1.956-0.305,2.69-0.917C48.465,37.769,48.962,36.864,49.221,35.663z"/>
	</g>
	<g>
		<path fill="#0F0F0F" d="M92.957,73.133v-3.42H86.76v-1.607l6.52-9.259h1.432v9.259h1.93v1.607h-1.93v3.42H92.957z M92.957,68.105
			v-6.441l-4.473,6.441H92.957z"/>
	</g>
</g>
<g id="Calque_3">
	<g>
		<title>Canvas 1</title>
		<g>
			<title>Layer 1</title>
			
				<line fill="none" stroke="#000000" stroke-width="4" stroke-linecap="round" stroke-linejoin="round" x1="59.694" y1="40.757" x2="68.194" y2="40.757"/>
			
				<line fill="none" stroke="#000000" stroke-width="4" stroke-linecap="round" stroke-linejoin="round" x1="76.696" y1="40.757" x2="85.196" y2="40.757"/>
			
				<line fill="none" stroke="#000000" stroke-width="4" stroke-linecap="round" stroke-linejoin="round" x1="72.444" y1="45.007" x2="72.444" y2="53.51"/>
			
				<line fill="none" stroke="#000000" stroke-width="4" stroke-linecap="round" stroke-linejoin="round" x1="72.444" y1="28.006" x2="72.444" y2="36.507"/>
		</g>
	</g>
</g>
</svg>
