<?xml version="1.0" encoding="utf-8"?>
<!-- Generator: Adobe Illustrator 13.0.2, SVG Export Plug-In . SVG Version: 6.00 Build 14948)  -->
<!DOCTYPE svg PUBLIC "-//W3C//DTD SVG 1.1//EN" "http://www.w3.org/Graphics/SVG/1.1/DTD/svg11.dtd">
<svg version="1.1" id="Layer_5" xmlns="http://www.w3.org/2000/svg" xmlns:xlink="http://www.w3.org/1999/xlink" x="0px" y="0px"
	 width="128px" height="128px" viewBox="0 0 128 128" enable-background="new 0 0 128 128" xml:space="preserve">
<path fill="#D9DADC" d="M128,117.199c0,5.965-4.834,10.801-10.799,10.801H10.8C4.835,128,0,123.164,0,117.199V10.8
	C0,4.835,4.835,0,10.8,0h106.401C123.166,0,128,4.835,128,10.8V117.199z"/>
<path fill="#A3A3A4" d="M70.132,115.856c0,6.698-5.43,12.128-12.128,12.128H12.26c-6.698,0-12.127-5.43-12.127-12.128V12.127
	C0.132,5.43,5.562,0,12.26,0h45.745c6.698,0,12.128,5.43,12.128,12.127V115.856z"/>
<path fill="none" stroke="#8DE4EA" stroke-width="7" stroke-linecap="round" stroke-linejoin="round" d="M12.084,65.979
	c2.25-4.312,9.816-14.038,12.153-12.932c6.178,2.924,10,14.82,12.955,18.792c5.671,7.623,12.922-6.873,14.251-9.37"/>
<circle cx="98.466" cy="107.334" r="3.667"/>
</svg>
