<?xml version="1.0" encoding="utf-8"?>
<!-- Generator: Adobe Illustrator 13.0.1, SVG Export Plug-In . SVG Version: 6.00 Build 14948)  -->
<!DOCTYPE svg PUBLIC "-//W3C//DTD SVG 1.1//EN" "http://www.w3.org/Graphics/SVG/1.1/DTD/svg11.dtd">
<svg version="1.1" xmlns="http://www.w3.org/2000/svg" xmlns:xlink="http://www.w3.org/1999/xlink" x="0px" y="0px"
	 width="127.723px" height="128.141px" viewBox="0 0 127.723 128.141" enable-background="new 0 0 127.723 128.141"
	 xml:space="preserve">
<g id="Layer_4">
	<path fill="#A3A3A4" stroke="#A3A3A4" stroke-width="8" d="M123.723,112.833c0,6.248-5.027,11.308-11.225,11.308H15.224
		C9.025,124.141,4,119.081,4,112.833V15.306C4,9.061,9.025,4,15.224,4h97.274c6.197,0,11.225,5.061,11.225,11.306V112.833z"/>
	<path fill="none" stroke="#000000" d="M90.657,41.16"/>
</g>
<g id="Layer_3">
	<path fill="#00747F" d="M109.889,95.977c0,8.116-6.58,14.697-14.696,14.697H31.919c-8.116,0-14.696-6.581-14.696-14.697V32.703
		c0-8.116,6.58-14.696,14.696-14.696h63.274c8.116,0,14.696,6.58,14.696,14.696V95.977z"/>
	<rect x="50.39" y="104.821" fill="#00747F" width="26.333" height="22.603"/>
</g>
<g id="Layer_5">
	<g>
		<path fill="#FFFFFF" d="M62.735,87.097c-11.463,0-20.458-8.465-20.458-21.957c0-14.285,9.435-22.662,21.164-22.662
			c12.257,0,20.546,8.906,20.546,21.869c0,15.872-11.022,22.75-21.164,22.75H62.735z M63,81.277c7.407,0,12.963-6.967,12.963-16.666
			c0-7.231-3.615-16.314-12.786-16.314c-9.083,0-13.051,8.465-13.051,16.578c0,9.348,5.292,16.402,12.787,16.402H63z"/>
	</g>
</g>
</svg>
