<?xml version="1.0" encoding="utf-8"?>
<!-- Generator: Adobe Illustrator 13.0.2, SVG Export Plug-In . SVG Version: 6.00 Build 14948)  -->
<!DOCTYPE svg PUBLIC "-//W3C//DTD SVG 1.1//EN" "http://www.w3.org/Graphics/SVG/1.1/DTD/svg11.dtd">
<svg version="1.1" id="Layer_7" xmlns="http://www.w3.org/2000/svg" xmlns:xlink="http://www.w3.org/1999/xlink" x="0px" y="0px"
	 width="127.746px" height="127.746px" viewBox="0 0 127.746 127.746" enable-background="new 0 0 127.746 127.746"
	 xml:space="preserve">
<rect x="1" y="1" fill="#FFFFFF" stroke="#565758" stroke-width="2" width="125.746" height="125.746"/>
<rect x="0.192" y="0.193" fill="#FFFFFF" width="125.747" height="125.747"/>
<rect x="18.846" y="18.391" fill="#CCDB79" width="89.13" height="89.363"/>
<path fill="#F9E20B" d="M43.87,32.897c0,5.153-4.177,9.33-9.331,9.33l0,0c-5.154,0-9.332-4.177-9.332-9.33l0,0
	c0-5.154,4.178-9.332,9.332-9.332l0,0C39.692,23.565,43.87,27.743,43.87,32.897L43.87,32.897z"/>
<line fill="none" stroke="#FFC000" stroke-width="2" stroke-linecap="round" x1="43.714" y1="23.72" x2="46.467" y2="20.966"/>
<line fill="none" stroke="#FFC000" stroke-width="2" stroke-linecap="round" x1="47.447" y1="32.942" x2="62.989" y2="32.942"/>
<line fill="none" stroke="#FFC000" stroke-width="2" stroke-linecap="round" x1="34.331" y1="21.171" x2="34.331" y2="20.412"/>
<line fill="none" stroke="#FFC000" stroke-width="2" stroke-linecap="round" x1="25.788" y1="23.64" x2="22.75" y2="20.603"/>
<line fill="none" stroke="#FFC000" stroke-width="2" stroke-linecap="round" x1="34.539" y1="44.902" x2="34.539" y2="55.535"/>
<line fill="none" stroke="#FFC000" stroke-width="2" stroke-linecap="round" x1="43.254" y1="41.485" x2="47.621" y2="45.853"/>
<line fill="none" stroke="#FFC000" stroke-width="2" stroke-linecap="round" x1="25.598" y1="41.105" x2="22.085" y2="44.618"/>
<line fill="none" stroke="#FFC000" stroke-width="2" stroke-linecap="round" x1="22.561" y1="32.562" x2="20.662" y2="32.562"/>
<path opacity="0.5" fill="none" stroke="#42351F" stroke-width="5" stroke-linecap="round" d="M21.978,74.078
	c0,0,39.615-27.696,42.346-26.39c2.876,1.376,13.013,18.98,18.269,18.03c5.259-0.95,8.45-9.498,12.017-5.7
	c3.567,3.799,7.413,8.306,9.858,11.398"/>
<polygon opacity="0.5" fill="#2F7024" points="96.844,88.521 80.319,88.521 88.646,71.513 88.521,71.513 "/>
<polygon opacity="0.5" fill="#32B512" points="49.482,102.387 33.715,102.387 41.659,69.612 41.537,69.612 "/>
<polygon opacity="0.5" fill="#15440A" points="67.18,77.428 57.98,77.428 62.615,61.309 62.542,61.309 "/>
<path fill="#FFFFFF" stroke="#000000" stroke-width="4" d="M102,80.815c0,2.43-1.969,4.4-4.399,4.4H56.689
	c-2.43,0-4.399-1.971-4.399-4.4V50.319c0-2.43,1.97-4.399,4.399-4.399h40.911c2.431,0,4.399,1.97,4.399,4.399V80.815z"/>
<line fill="none" stroke="#000000" stroke-width="3" stroke-linecap="round" x1="62.327" y1="56.409" x2="90.373" y2="56.409"/>
<line fill="none" stroke="#000000" stroke-width="3" stroke-linecap="round" x1="62.294" y1="65.178" x2="90.34" y2="65.178"/>
<line fill="none" stroke="#000000" stroke-width="3" stroke-linecap="round" x1="62.293" y1="74.48" x2="90.34" y2="74.48"/>
</svg>
