<?xml version="1.0" encoding="utf-8"?>
<!-- Generator: Adobe Illustrator 13.0.2, SVG Export Plug-In . SVG Version: 6.00 Build 14948)  -->
<!DOCTYPE svg PUBLIC "-//W3C//DTD SVG 1.1//EN" "http://www.w3.org/Graphics/SVG/1.1/DTD/svg11.dtd">
<svg version="1.1" id="Layer_3" xmlns="http://www.w3.org/2000/svg" xmlns:xlink="http://www.w3.org/1999/xlink" x="0px" y="0px"
	 width="127.984px" height="127.984px" viewBox="0 0 127.984 127.984" enable-background="new 0 0 127.984 127.984"
	 xml:space="preserve">
<path fill="#D9DADC" d="M127.984,115.856c0,6.698-5.43,12.128-12.128,12.128H12.127C5.43,127.984,0,122.555,0,115.856V12.127
	C0,5.43,5.43,0,12.127,0h103.729c6.698,0,12.128,5.43,12.128,12.127V115.856z"/>
<circle fill="#76B3E5" cx="63.012" cy="63.564" r="53.666"/>
<path fill="#F9E20B" d="M53.093,42.925c0,5.273-4.275,9.548-9.549,9.548l0,0c-5.274,0-9.55-4.275-9.55-9.548l0,0
	c0-5.274,4.275-9.551,9.55-9.551l0,0C48.818,33.374,53.093,37.65,53.093,42.925L53.093,42.925z"/>
<line fill="none" stroke="#FFC000" stroke-width="2" stroke-linecap="round" x1="54.271" y1="32.354" x2="60.082" y2="26.894"/>
<line fill="none" stroke="#FFC000" stroke-width="2" stroke-linecap="round" x1="56.754" y1="42.971" x2="72.66" y2="42.971"/>
<line fill="none" stroke="#FFC000" stroke-width="2" stroke-linecap="round" x1="43.331" y1="28.868" x2="43.331" y2="27.39"/>
<line fill="none" stroke="#FFC000" stroke-width="2" stroke-linecap="round" x1="34.588" y1="33.451" x2="31.48" y2="30.342"/>
<line fill="none" stroke="#FFC000" stroke-width="2" stroke-linecap="round" x1="43.544" y1="55.211" x2="43.544" y2="66.091"/>
<line fill="none" stroke="#FFC000" stroke-width="2" stroke-linecap="round" x1="52.463" y1="51.713" x2="56.932" y2="56.183"/>
<line fill="none" stroke="#FFC000" stroke-width="2" stroke-linecap="round" x1="34.395" y1="51.325" x2="30.8" y2="54.919"/>
<line fill="none" stroke="#FFC000" stroke-width="2" stroke-linecap="round" x1="29.412" y1="42.582" x2="23.883" y2="42.582"/>
<path fill="none" stroke="#42351F" stroke-width="5" stroke-linecap="round" d="M30.69,85.067c0,0,40.542-28.342,43.335-27.006
	c2.944,1.408,13.317,19.423,18.696,18.451c5.382-0.974,8.647-9.721,12.298-5.833c3.65,3.889,7.586,8.499,10.088,11.663"/>
<polygon fill="#2F7024" points="107.307,99.849 90.396,99.849 98.917,82.442 98.788,82.442 "/>
<polygon fill="#32B512" points="58.837,114.038 42.701,114.038 50.831,80.498 50.706,80.498 "/>
<polygon fill="#15440A" points="76.948,88.495 67.533,88.495 72.276,71.999 72.202,71.999 "/>
<path fill="none" stroke="#000000" d="M90.6,41.32"/>
<circle fill="none" stroke="#A3A3A4" stroke-width="14" cx="63.617" cy="64.424" r="50.809"/>
</svg>
