<?xml version="1.0" encoding="utf-8"?>
<!-- Generator: Adobe Illustrator 13.0.2, SVG Export Plug-In . SVG Version: 6.00 Build 14948)  -->
<!DOCTYPE svg PUBLIC "-//W3C//DTD SVG 1.1//EN" "http://www.w3.org/Graphics/SVG/1.1/DTD/svg11.dtd">
<svg version="1.1" id="Layer_3" xmlns="http://www.w3.org/2000/svg" xmlns:xlink="http://www.w3.org/1999/xlink" x="0px" y="0px"
	 width="128px" height="128px" viewBox="0 0 128 128" enable-background="new 0 0 128 128" xml:space="preserve">
<path fill="#3C3C3C" d="M128,117.2c0,5.965-4.835,10.801-10.8,10.801H10.8C4.835,128,0,123.165,0,117.2V10.8C0,4.835,4.835,0,10.8,0
	h106.4c5.965,0,10.8,4.835,10.8,10.8V117.2z"/>
<polyline fill="none" stroke="#FFFFFF" stroke-width="4" stroke-linecap="round" stroke-linejoin="round" points="15.5,118.727 
	32.167,77.393 52.834,117.393 80.167,65.393 86.501,97.727 114.167,78.727 "/>
<polyline fill="none" stroke="#C7DDF3" stroke-width="4" stroke-linecap="round" stroke-linejoin="round" points="15.561,89.176 
	32.228,47.843 52.895,87.842 80.228,35.843 89.564,68.176 114.228,49.177 "/>
<polyline fill="none" stroke="#629CCC" stroke-width="4" stroke-linecap="round" stroke-linejoin="round" points="15.569,61.032 
	32.235,19.698 52.902,59.698 80.235,7.698 92.575,40.032 114.235,21.032 "/>
</svg>
