<?xml version="1.0" encoding="utf-8"?>
<!-- Generator: Adobe Illustrator 13.0.1, SVG Export Plug-In . SVG Version: 6.00 Build 14948)  -->
<!DOCTYPE svg PUBLIC "-//W3C//DTD SVG 1.1//EN" "http://www.w3.org/Graphics/SVG/1.1/DTD/svg11.dtd">
<svg version="1.1" id="Layer_5" xmlns="http://www.w3.org/2000/svg" xmlns:xlink="http://www.w3.org/1999/xlink" x="0px" y="0px"
	 width="127.84px" height="127.897px" viewBox="0 0 127.84 127.897" enable-background="new 0 0 127.84 127.897"
	 xml:space="preserve">
<path fill="#565758" d="M127.494,114.471c0,6.561-5.335,11.872-11.911,11.872H12.361c-6.577,0-11.91-5.312-11.91-11.872V12.063
	c0-6.558,5.333-11.872,11.91-11.872h103.222c6.576,0,11.911,5.314,11.911,11.872V114.471z"/>
<line fill="none" stroke="#D9DADC" x1="0.544" y1="9.713" x2="127.494" y2="9.713"/>
<line fill="none" stroke="#D9DADC" x1="0.451" y1="19.042" x2="127.494" y2="19.042"/>
<line fill="none" stroke="#D9DADC" x1="0.877" y1="28.375" x2="127.827" y2="28.375"/>
<line fill="none" stroke="#D9DADC" x1="0.785" y1="38.707" x2="127.827" y2="38.707"/>
<line fill="none" stroke="#D9DADC" x1="0.211" y1="49.378" x2="127.161" y2="49.378"/>
<line fill="none" stroke="#D9DADC" x1="0.118" y1="58.708" x2="127.161" y2="58.708"/>
<line fill="none" stroke="#D9DADC" x1="0.544" y1="96.042" x2="127.494" y2="96.042"/>
<line fill="none" stroke="#D9DADC" x1="0.452" y1="78.372" x2="127.494" y2="78.372"/>
<line fill="none" stroke="#D9DADC" x1="10.507" y1="127.471" x2="10.507" y2="0.521"/>
<line fill="none" stroke="#D9DADC" x1="19.836" y1="127.563" x2="19.836" y2="0.521"/>
<line fill="none" stroke="#D9DADC" x1="29.17" y1="127.137" x2="29.17" y2="0.188"/>
<line fill="none" stroke="#D9DADC" x1="39.501" y1="127.23" x2="39.501" y2="0.188"/>
<line fill="none" stroke="#D9DADC" x1="50.173" y1="127.803" x2="50.173" y2="0.854"/>
<line fill="none" stroke="#D9DADC" x1="59.502" y1="127.897" x2="59.502" y2="0.854"/>
<line fill="none" stroke="#D9DADC" x1="68.835" y1="127.47" x2="68.835" y2="0.521"/>
<line fill="none" stroke="#D9DADC" x1="79.166" y1="127.563" x2="79.166" y2="0.521"/>
<line fill="none" stroke="#D9DADC" x1="89.508" y1="127.042" x2="89.508" y2="0"/>
<line fill="none" stroke="#D9DADC" x1="100.18" y1="127.616" x2="100.18" y2="0.666"/>
<line fill="none" stroke="#D9DADC" x1="109.508" y1="127.709" x2="109.508" y2="0.666"/>
<line fill="none" stroke="#D9DADC" x1="118.842" y1="127.282" x2="118.842" y2="0.333"/>
<line fill="none" stroke="#D9DADC" x1="0.64" y1="87.025" x2="127.682" y2="87.025"/>
<line fill="none" stroke="#D9DADC" x1="0.798" y1="69.372" x2="127.84" y2="69.372"/>
<path fill="#B0AFD1" stroke="#990066" stroke-width="4.3471" d="M125.414,114.176c0,6.368-5.173,11.531-11.554,11.531H13.727
	c-6.381,0-11.554-5.163-11.554-11.531V45.908c0-6.369,9.667,59.552,19.663,13.135c0,0,4.238,32.28,5.504,35.333
	c2.714,6.547,14.5,10.995,18.5-58.667c0,0,9.285,64,17.899,67.167c13.849,0,22.101-81.833,22.101-81.833S90.28,47.866,93.598,59.8
	c3.397,12.218,8.309,24.978,14.783,26.909c10.994,3.281,17.032-25.341,17.032-21.333V114.176z"/>
</svg>
