<?xml version="1.0" encoding="utf-8"?>
<!-- Generator: Adobe Illustrator 13.0.1, SVG Export Plug-In . SVG Version: 6.00 Build 14948)  -->
<!DOCTYPE svg PUBLIC "-//W3C//DTD SVG 1.1//EN" "http://www.w3.org/Graphics/SVG/1.1/DTD/svg11.dtd">
<svg version="1.1" id="Layer_7" xmlns="http://www.w3.org/2000/svg" xmlns:xlink="http://www.w3.org/1999/xlink" x="0px" y="0px"
	 width="128px" height="128px" viewBox="0 0 128 128" enable-background="new 0 0 128 128" xml:space="preserve">
<path fill="none" stroke="#000000" d="M94.604,45.32"/>
<path fill="#DBDE88" d="M128,117.2c0,5.965-4.835,10.8-10.8,10.8H10.8C4.835,128,0,123.165,0,117.2V10.8C0,4.835,4.835,0,10.8,0
	h106.4c5.965,0,10.8,4.835,10.8,10.8V117.2z"/>
<ellipse transform="matrix(0.999 0.0439 -0.0439 0.999 4.4185 -1.7466)" fill="#FFFFFF" cx="41.99" cy="99.764" rx="29.641" ry="10.353"/>
<path fill="#A3A3A4" stroke="#565758" stroke-width="4" d="M109.589,11.727c3.583,2.886,4.729,7.407,2.562,10.099L91.365,47.623
	c-2.167,2.691-6.83,2.534-10.411-0.353l0,0c-3.583-2.886-4.729-7.407-2.562-10.099l20.784-25.798
	C101.346,8.682,106.008,8.839,109.589,11.727L109.589,11.727z"/>
<path fill="#A3A3A4" stroke="#565758" stroke-width="4" d="M83.721,43.401c2.633,2.12,2.678,6.435,0.101,9.634L59.108,83.704
	c-0.966,1.201-2.163,2.073-3.422,2.584c-2.52-0.376-9.685,7.429-11.331,6.104l0,0c-1.375-1.105,4.056-9.214,3.315-11.381
	c0.039-1.678,0.671-3.459,1.901-4.987l24.71-30.673C76.859,42.153,81.088,41.278,83.721,43.401L83.721,43.401z"/>
<path fill="#A3A3A4" stroke="#565758" stroke-width="4" d="M93.387,49.184c1.368,1.122,1.566,3.142,0.445,4.509l0,0
	c-1.122,1.37-3.142,1.569-4.51,0.446L73.313,41.008c-1.368-1.121-1.568-3.14-0.444-4.51l0,0c1.121-1.369,3.141-1.567,4.509-0.445
	L93.387,49.184z"/>
<path fill="#DBDE88" d="M76.896,58.466c-0.911,1.395-1.263,1.395-1.985,2.557L57.483,82.65c-0.976,1.213-2.287,1.952-3.582,2.144
	c-1.361,0.136-6.472,5.624-7.333,4.931l-0.041-0.073c-0.902-0.725,3.057-7.055,2.885-8.627c-0.042-1.262,0.403-2.633,1.339-3.796
	l11.582-13.716c1.816-2.256,5.469-2.059,8.662-3.391L76.896,58.466z"/>
<path fill="#DBDE88" d="M47.045,87.124l-4.678,5.869c0,0,0.422,1.35,2.465,1.633l4.357-6.384L47.045,87.124z"/>
</svg>
