<?xml version="1.0" encoding="utf-8"?>
<!-- Generator: Adobe Illustrator 13.0.2, SVG Export Plug-In . SVG Version: 6.00 Build 14948)  -->
<!DOCTYPE svg PUBLIC "-//W3C//DTD SVG 1.1//EN" "http://www.w3.org/Graphics/SVG/1.1/DTD/svg11.dtd">
<svg version="1.1" id="Layer_6" xmlns="http://www.w3.org/2000/svg" xmlns:xlink="http://www.w3.org/1999/xlink" x="0px" y="0px"
	 width="129.04px" height="128.899px" viewBox="0 0 129.04 128.899" enable-background="new 0 0 129.04 128.899"
	 xml:space="preserve">
<g>
	<linearGradient id="SVGID_1_" gradientUnits="userSpaceOnUse" x1="1.9868" y1="64.3115" x2="127.4868" y2="64.3115">
		<stop  offset="0" style="stop-color:#00A8DE"/>
		<stop  offset="0.0021" style="stop-color:#01A6DD"/>
		<stop  offset="0.0671" style="stop-color:#1775BC"/>
		<stop  offset="0.124" style="stop-color:#2751A5"/>
		<stop  offset="0.1702" style="stop-color:#303B96"/>
		<stop  offset="0.2" style="stop-color:#343391"/>
		<stop  offset="0.2312" style="stop-color:#503282"/>
		<stop  offset="0.2977" style="stop-color:#873064"/>
		<stop  offset="0.3596" style="stop-color:#B22F4D"/>
		<stop  offset="0.415" style="stop-color:#D12E3C"/>
		<stop  offset="0.4618" style="stop-color:#E42D32"/>
		<stop  offset="0.4945" style="stop-color:#EB2D2E"/>
		<stop  offset="0.7418" style="stop-color:#FDE92B"/>
		<stop  offset="1" style="stop-color:#009E54"/>
	</linearGradient>
	<path fill="url(#SVGID_1_)" d="M1.987,118.399c0,4.971,4.029,9,9,9h107.5c4.971,0,9-4.029,9-9V10.224c0-4.971-4.029-9-9-9h-107.5
		c-4.971,0-9,4.029-9,9V118.399z"/>
</g>
<circle fill="none" stroke="#FFFFFF" stroke-width="4" cx="49.648" cy="59.089" r="11.63"/>
<circle fill="none" stroke="#424344" stroke-width="4" cx="49.648" cy="59.089" r="10.13"/>
<path fill="none" stroke="#FFFFFF" stroke-width="3" d="M127.54,115.55c0,6.547-5.293,11.85-11.818,11.85H13.315
	c-6.525,0-11.815-5.303-11.815-11.85V13.349C1.5,6.804,6.79,1.5,13.315,1.5h102.406c6.525,0,11.818,5.304,11.818,11.849V115.55z"/>
</svg>
