<?xml version="1.0" encoding="utf-8"?>
<!-- Generator: Adobe Illustrator 13.0.2, SVG Export Plug-In . SVG Version: 6.00 Build 14948)  -->
<!DOCTYPE svg PUBLIC "-//W3C//DTD SVG 1.1//EN" "http://www.w3.org/Graphics/SVG/1.1/DTD/svg11.dtd">
<svg version="1.1" id="Layer_2" xmlns="http://www.w3.org/2000/svg" xmlns:xlink="http://www.w3.org/1999/xlink" x="0px" y="0px"
	 width="128px" height="127.871px" viewBox="0 0 128 127.871" enable-background="new 0 0 128 127.871" xml:space="preserve">
<path fill="#E1C79D" d="M123,45.55c0,15.703-14.184,28.431-31.68,28.431H49.989c-17.496,0-31.679-12.729-31.679-28.431V24.431
	C18.31,8.729,26.493,0,43.989,0H97.32C114.816,0,123,8.729,123,24.431V45.55z"/>
<path fill="#FFF3AB" d="M128,115.464c0,6.853-4.835,12.407-10.8,12.407H0c0,0,0-5.555,0-12.407V40.767l16.345-0.376l78.565,0.376
	H128V115.464z"/>
<g>
	<path fill="#565758" d="M40.872,13.366H32.76V7.661h23.088v5.705h-8.201v24.336h-6.775V13.366z"/>
	<path fill="#565758" d="M77.822,32.442c0,2.05,0.09,4.056,0.356,5.259h-6.105l-0.401-2.184h-0.134
		c-1.427,1.738-3.655,2.674-6.239,2.674c-4.413,0-7.043-3.209-7.043-6.686c0-5.661,5.081-8.335,12.792-8.335v-0.267
		c0-1.159-0.624-2.808-3.967-2.808c-2.229,0-4.591,0.758-6.017,1.604l-1.248-4.323c1.516-0.847,4.501-1.961,8.468-1.961
		c7.266,0,9.538,4.279,9.538,9.405V32.442z M71.271,27.406c-3.565,0-6.329,0.847-6.329,3.432c0,1.738,1.159,2.585,2.675,2.585
		c1.648,0,3.075-1.114,3.521-2.496c0.09-0.356,0.134-0.758,0.134-1.159V27.406z"/>
	<path fill="#565758" d="M86.557,6.056h6.774v12.436h0.09c1.292-1.872,3.565-3.076,6.597-3.076c5.215,0,9.003,4.324,8.958,11.009
		c0,7.844-4.947,11.767-9.939,11.767c-2.54,0-5.036-0.936-6.552-3.521h-0.089l-0.268,3.031h-5.749
		c0.089-1.426,0.178-4.056,0.178-6.507V6.056z M93.331,28.431c0,0.446,0.045,0.847,0.134,1.204c0.446,1.783,2.006,3.209,3.967,3.209
		c2.897,0,4.681-2.229,4.681-6.15c0-3.388-1.516-6.062-4.681-6.062c-1.827,0-3.521,1.382-3.967,3.343
		c-0.089,0.401-0.134,0.802-0.134,1.248V28.431z"/>
</g>
</svg>
