<?xml version="1.0" encoding="utf-8"?>
<!-- Generator: Adobe Illustrator 13.0.2, SVG Export Plug-In . SVG Version: 6.00 Build 14948)  -->
<!DOCTYPE svg PUBLIC "-//W3C//DTD SVG 1.1//EN" "http://www.w3.org/Graphics/SVG/1.1/DTD/svg11.dtd">
<svg version="1.1" id="Layer_4" xmlns="http://www.w3.org/2000/svg" xmlns:xlink="http://www.w3.org/1999/xlink" x="0px" y="0px"
	 width="127.935px" height="127.93px" viewBox="0 0 127.935 127.93" enable-background="new 0 0 127.935 127.93"
	 xml:space="preserve">
<path fill="#C7DDF3" stroke="#7F96B2" stroke-width="8" d="M123.935,112.643c0,6.236-5.036,11.287-11.244,11.287H15.244
	C9.034,123.93,4,118.879,4,112.643V15.286C4,9.052,9.034,4,15.244,4h97.446c6.208,0,11.244,5.052,11.244,11.286V112.643z"/>
<path fill="#8CA8BF" d="M112.519,107.789c0,2.326-1.885,4.211-4.211,4.211H19.855c-2.326,0-4.213-1.885-4.213-4.211V19.337
	c0-2.326,1.887-4.212,4.213-4.212h88.453c2.326,0,4.211,1.886,4.211,4.212V107.789z"/>
<g>
	<path fill="#FFFFFF" d="M58.437,49.536H45.331v-9.217H82.63v9.217H69.381v39.315H58.437V49.536z"/>
</g>
</svg>
