<?xml version="1.0" encoding="utf-8"?>
<!-- Generator: Adobe Illustrator 13.0.1, SVG Export Plug-In . SVG Version: 6.00 Build 14948)  -->
<!DOCTYPE svg PUBLIC "-//W3C//DTD SVG 1.1//EN" "http://www.w3.org/Graphics/SVG/1.1/DTD/svg11.dtd">
<svg version="1.1" id="Layer_5" xmlns="http://www.w3.org/2000/svg" xmlns:xlink="http://www.w3.org/1999/xlink" x="0px" y="0px"
	 width="127.12px" height="93.233px" viewBox="0 0 127.12 93.233" enable-background="new 0 0 127.12 93.233" xml:space="preserve">
<path fill="none" stroke="#000000" d="M102.769,12.97"/>
<rect x="53.229" fill="#7FA5FF" width="73.89" height="93.233"/>
<g>
	<path d="M13.104,41.232v8.144h6.674v6.858h-6.674v10.899c0,3.613,0.918,5.267,3.674,5.267c1.286,0,1.898-0.062,2.756-0.245
		l0.061,7.042c-1.164,0.429-3.429,0.796-6.001,0.796c-3,0-5.511-1.041-7.042-2.572c-1.714-1.775-2.572-4.653-2.572-8.879V56.234H0
		v-6.858h3.98v-5.633L13.104,41.232z"/>
	<path d="M32.03,67.256c0.306,3.919,4.103,5.757,8.45,5.757c3.185,0,5.756-0.429,8.267-1.286l1.225,6.307
		c-3.062,1.286-6.797,1.898-10.838,1.898c-10.165,0-15.982-5.878-15.982-15.309c0-7.593,4.776-15.981,15.125-15.981
		c9.675,0,13.349,7.531,13.349,14.94c0,1.593-0.184,3.001-0.306,3.735L32.03,67.256z M42.991,60.888
		c0-2.204-0.979-6.062-5.205-6.062c-3.98,0-5.572,3.612-5.817,6.062H42.991z"/>
	<path opacity="0.3" d="M63.565,49.376l2.939,5.021c0.857,1.53,1.653,3,2.449,4.47h0.122c0.796-1.653,1.531-3.123,2.327-4.653
		l2.633-4.838h10.104l-9.858,14.268l9.981,15.676H73.73l-3.001-5.389c-0.857-1.47-1.653-3-2.326-4.531h-0.185
		c-0.734,1.592-1.53,3.062-2.266,4.531l-2.816,5.389H52.91l10.165-15.247l-9.919-14.696H63.565z"/>
	<path opacity="0.3" d="M99.44,41.232v8.144h6.675v6.858H99.44v10.899c0,3.613,0.919,5.267,3.675,5.267
		c1.285,0,1.897-0.062,2.755-0.245l0.062,7.042c-1.163,0.429-3.429,0.796-6.001,0.796c-3,0-5.511-1.041-7.042-2.572
		c-1.714-1.775-2.571-4.653-2.571-8.879V56.234h-3.98v-6.858h3.98v-5.633L99.44,41.232z"/>
</g>
</svg>
