<?xml version="1.0" encoding="utf-8"?>
<!-- Generator: Adobe Illustrator 13.0.1, SVG Export Plug-In . SVG Version: 6.00 Build 14948)  -->
<!DOCTYPE svg PUBLIC "-//W3C//DTD SVG 1.1//EN" "http://www.w3.org/Graphics/SVG/1.1/DTD/svg11.dtd">
<svg version="1.1" id="Layer_6" xmlns="http://www.w3.org/2000/svg" xmlns:xlink="http://www.w3.org/1999/xlink" x="0px" y="0px"
	 width="127.653px" height="127.485px" viewBox="0 0 127.653 127.485" enable-background="new 0 0 127.653 127.485"
	 xml:space="preserve">
<path fill="#DBDE88" d="M127.653,115.488c0,6.63-5.335,11.997-11.911,11.997H12.521c-6.577,0-11.91-5.367-11.91-11.997V11.998
	C0.611,5.371,5.944,0,12.521,0h103.222c6.576,0,11.911,5.371,11.911,11.998V115.488z"/>
<rect y="62.519" fill="#565758" width="127.653" height="2.249"/>
<rect x="21.249" y="50.019" fill="#00747F" width="8.257" height="26.5"/>
<rect x="29.237" y="42.512" transform="matrix(1 0.0039 -0.0039 1 0.253 -0.1297)" fill="#00747F" width="8.258" height="44.513"/>
<rect x="36.871" y="52.519" fill="#00747F" width="8.258" height="21"/>
<rect x="44.871" y="56.269" fill="#00747F" width="8.258" height="13.25"/>
<rect x="52.371" y="41.019" fill="#00747F" width="8.258" height="45"/>
<rect x="59.746" y="22.519" fill="#00747F" width="8.258" height="81.5"/>
<rect x="67.003" y="10.519" fill="#00747F" width="8.258" height="105"/>
<rect x="74.746" y="27.019" fill="#00747F" width="8.258" height="71"/>
<rect x="82.639" y="37.503" fill="#00747F" width="8.258" height="49"/>
<rect x="90.531" y="48.983" fill="#00747F" width="8.258" height="26.5"/>
<rect x="98.159" y="55.805" fill="#00747F" width="8.258" height="15"/>
<rect x="105.746" y="60.019" fill="#00747F" width="8.258" height="7.875"/>
<rect x="13.245" y="58.581" fill="#00747F" width="8.258" height="7.875"/>
</svg>
